<?xml version="1.0" standalone="no"?>
<!DOCTYPE svg PUBLIC "-//W3C//DTD SVG 20010904//EN"
 "http://www.w3.org/TR/2001/REC-SVG-20010904/DTD/svg10.dtd">
<svg version="1.0" xmlns="http://www.w3.org/2000/svg"
 width="2000.000000pt" height="2000.000000pt" viewBox="0 0 2000.000000 2000.000000"
 preserveAspectRatio="xMidYMid meet">
<metadata>
Created by potrace 1.16, written by Peter Selinger 2001-2019
</metadata>
<g transform="translate(0.000000,2000.000000) scale(0.100000,-0.100000)"
fill="#000000" stroke="none">
<path d="M9190 19377 c0 -2 17 -15 38 -29 20 -14 71 -48 114 -76 42 -29 79
-52 83 -52 4 0 24 -13 44 -29 20 -15 50 -35 66 -44 17 -9 42 -27 57 -41 15
-14 32 -26 38 -26 6 0 8 -5 4 -12 -4 -6 -3 -8 4 -4 11 6 52 -30 52 -46 0 -4 6
-7 13 -5 6 1 11 -4 9 -11 -1 -8 2 -11 8 -7 5 3 13 -2 17 -11 4 -10 2 -19 -5
-22 -14 -4 -6 -22 9 -22 6 0 7 5 4 10 -3 6 -1 10 5 10 7 0 10 -6 7 -14 -3 -8
3 -31 13 -52 11 -20 21 -42 24 -48 3 -7 8 -6 16 4 9 12 10 11 5 -7 -4 -14 -2
-23 5 -23 6 0 26 -11 43 -24 18 -13 113 -64 212 -113 176 -88 274 -143 365
-207 25 -17 54 -37 65 -44 85 -53 115 -75 115 -83 0 -5 6 -9 14 -9 8 0 16 -3
18 -8 2 -4 32 -30 68 -59 36 -28 81 -70 100 -92 19 -23 43 -44 53 -47 9 -3 17
-11 17 -18 0 -8 8 -20 17 -27 14 -12 16 -12 9 1 -4 8 1 6 11 -6 31 -36 103
-79 247 -149 76 -37 144 -71 150 -76 20 -16 269 -179 273 -179 3 0 15 -8 28
-19 19 -14 21 -21 12 -31 -10 -10 -7 -10 13 0 14 7 22 9 18 5 -10 -10 10 -45
25 -45 17 0 59 -39 53 -49 -3 -4 1 -8 9 -8 12 0 12 3 3 16 -8 10 -4 9 9 -3 13
-10 20 -23 17 -27 -3 -5 4 -9 15 -9 22 0 30 -20 9 -20 -7 -1 2 -7 20 -15 17
-8 32 -17 32 -20 0 -3 -6 -3 -12 1 -7 5 5 -10 27 -32 22 -22 43 -39 48 -37 4
3 5 9 2 14 -3 5 0 6 8 3 12 -4 11 -13 -8 -49 -13 -24 -21 -46 -18 -49 4 -3 -3
-6 -15 -6 -11 0 -29 -3 -39 -6 -14 -5 -15 -4 -4 4 27 19 5 40 -39 36 -23 -2
-46 -6 -51 -10 -5 -3 -15 -1 -22 4 -17 14 -54 19 -56 7 0 -5 12 -13 29 -18 16
-4 35 -15 42 -25 14 -17 26 -26 88 -62 62 -36 75 -45 83 -58 5 -7 20 -17 33
-22 13 -5 24 -17 24 -27 0 -12 3 -14 10 -7 14 14 231 -199 259 -254 11 -22 28
-48 37 -57 10 -9 18 -26 19 -37 1 -13 18 -30 46 -46 54 -31 84 -49 135 -83 21
-15 84 -55 139 -89 55 -35 125 -80 155 -102 30 -21 74 -52 97 -67 23 -16 39
-32 35 -36 -4 -5 -1 -5 6 -1 6 4 12 2 12 -3 0 -6 6 -11 13 -11 7 0 28 -13 47
-28 19 -16 64 -48 100 -73 83 -56 86 -59 118 -89 15 -14 44 -34 66 -45 21 -11
40 -26 43 -32 3 -7 12 -13 20 -13 8 0 11 -5 7 -12 -4 -6 -3 -8 2 -5 9 5 141
-93 156 -117 4 -6 13 -11 20 -11 7 0 13 -7 13 -15 0 -9 8 -14 20 -12 16 3 17
2 6 -12 -12 -14 -11 -16 4 -10 14 6 16 4 10 -6 -6 -10 -4 -12 8 -7 10 4 16 2
14 -6 -1 -7 4 -11 12 -9 9 2 11 -3 7 -14 -5 -14 -4 -15 8 -5 11 9 15 8 19 -3
3 -8 1 -17 -6 -20 -7 -3 -2 -3 10 -1 12 3 25 0 29 -6 5 -8 3 -9 -6 -4 -7 4 -2
-6 11 -24 23 -31 37 -42 23 -18 -4 6 5 1 19 -12 25 -22 28 -41 7 -41 -5 0 -6
7 -3 17 5 12 3 14 -7 8 -9 -6 -11 -4 -5 5 5 8 4 11 -2 7 -18 -11 -10 -52 10
-49 10 2 21 -6 27 -20 8 -21 9 -21 10 -3 0 17 2 17 10 5 8 -12 10 -12 10 5 0
17 2 17 10 5 7 -11 5 -19 -8 -30 -20 -17 -28 -50 -12 -50 5 0 10 9 10 20 0 24
32 27 50 5 10 -12 8 -18 -10 -33 -21 -17 -21 -19 -4 -19 10 0 25 4 32 10 9 7
11 5 6 -8 -5 -12 -4 -16 3 -12 11 7 28 -22 18 -31 -3 -3 -5 0 -5 5 0 6 -8 10
-17 8 -10 -1 -17 -8 -16 -14 5 -19 -26 -12 -39 9 -7 11 -23 20 -35 20 -22 0
-53 24 -53 41 0 6 -4 8 -9 4 -13 -7 -101 15 -101 26 0 4 -19 13 -42 19 -80 21
-183 50 -214 60 -52 17 -233 54 -334 70 -200 30 -351 40 -623 42 -309 3 -377
1 -497 -13 -41 -4 -104 -11 -140 -15 -36 -3 -68 -10 -71 -16 -3 -5 -12 -8 -20
-7 -31 6 -203 -14 -235 -27 -19 -8 -69 -17 -111 -21 -43 -3 -81 -10 -84 -14
-3 -5 -43 -14 -90 -20 -154 -19 -342 -59 -360 -75 -10 -9 -31 -17 -46 -19 -15
-1 -36 -5 -46 -10 -10 -4 -23 -2 -31 4 -11 9 -18 8 -33 -7 -13 -14 -35 -19
-83 -21 -36 -1 -69 -6 -74 -11 -6 -6 -19 -10 -30 -11 -21 0 -21 0 -1 -9 l20
-8 -20 -7 c-11 -5 -23 -10 -27 -12 -4 -2 -5 3 -2 11 7 17 -20 23 -30 7 -3 -4
-17 -6 -31 -3 -26 5 -33 -6 -14 -25 7 -7 7 -13 1 -17 -6 -3 -13 -2 -17 4 -8
14 -26 13 -22 -1 1 -6 -4 -14 -12 -17 -8 -2 -11 0 -7 6 3 6 2 13 -4 17 -12 7
-52 -13 -46 -24 8 -12 -30 -30 -45 -20 -11 7 -11 9 4 9 9 0 17 5 17 10 0 13
-6 13 -31 -1 -11 -5 -17 -15 -13 -21 5 -7 -5 -9 -30 -4 -41 8 -68 -6 -59 -30
6 -17 -22 -19 -33 -3 -4 8 -13 4 -26 -12 -11 -15 -16 -18 -12 -6 7 20 6 20
-35 6 -38 -13 -41 -32 -3 -23 l27 6 -25 -14 c-14 -8 -26 -10 -28 -6 -7 15 -52
8 -72 -12 -12 -12 -20 -15 -20 -7 -1 7 -6 5 -14 -5 -7 -10 -22 -18 -34 -18
-30 0 -53 -11 -46 -22 4 -6 -1 -8 -14 -4 -12 4 -26 1 -35 -8 -8 -8 -17 -13
-20 -10 -6 7 -70 -25 -79 -39 -4 -6 -4 -15 -1 -21 4 -5 1 -6 -7 -1 -7 4 -16 2
-20 -5 -4 -7 -13 -9 -19 -5 -9 5 -7 11 6 21 12 9 13 13 4 12 -13 -3 -32 -17
-73 -55 -9 -8 -24 -13 -32 -10 -9 4 -18 2 -21 -3 -4 -6 -17 -10 -31 -10 -17 0
-23 -4 -18 -12 5 -8 2 -9 -10 -5 -14 6 -17 3 -12 -8 3 -9 2 -13 -4 -10 -6 3
-16 3 -22 -1 -7 -5 -21 -9 -32 -10 -11 0 -22 -6 -24 -12 -2 -7 -13 -12 -25
-12 -40 0 -66 -11 -60 -26 3 -8 10 -11 16 -7 6 3 7 1 3 -6 -4 -6 -11 -9 -16
-6 -4 3 -13 -2 -20 -10 -7 -8 -21 -15 -31 -15 -10 0 -22 -6 -26 -14 -4 -7 -19
-18 -33 -25 -22 -11 -23 -10 -7 2 9 8 17 17 17 21 0 11 -17 6 -38 -12 -17 -15
-19 -21 -9 -32 9 -10 9 -11 -1 -6 -7 4 -20 2 -28 -5 -13 -10 -17 -10 -24 1 -5
8 -12 11 -16 7 -4 -3 -1 -13 5 -21 10 -12 5 -18 -31 -35 -30 -14 -47 -16 -55
-9 -7 6 -14 8 -14 4 -1 -3 -2 -9 -3 -14 -3 -17 -45 -54 -55 -48 -6 4 -9 1 -6
-7 4 -8 -5 -18 -20 -25 -14 -7 -36 -17 -50 -24 -14 -6 -23 -14 -20 -16 3 -3
-1 -12 -8 -20 -10 -13 -9 -14 3 -7 12 6 12 5 3 -5 -12 -13 -37 -5 -29 9 3 4
-9 8 -27 8 -18 0 -27 -2 -21 -4 7 -2 -6 -24 -28 -48 -23 -25 -44 -42 -48 -40
-10 6 -22 -24 -14 -36 3 -5 10 -6 16 -3 7 4 8 2 4 -4 -4 -7 -3 -12 2 -12 14 0
33 26 25 34 -4 4 0 4 8 1 11 -4 30 7 54 29 21 20 42 36 47 36 14 0 88 52 84
59 -2 3 2 15 10 26 13 18 14 18 14 0 0 -16 2 -17 18 -3 9 9 33 24 52 33 19 10
37 21 40 24 6 7 41 28 83 49 15 7 24 18 21 24 -4 6 -2 8 4 4 14 -8 192 85 185
98 -3 5 -1 6 5 2 6 -3 66 20 134 52 68 33 139 66 158 75 19 8 60 26 90 40 86
38 238 97 253 97 7 0 17 4 23 9 18 18 488 166 639 201 50 11 126 29 170 40
106 25 256 52 261 47 3 -2 -35 -12 -83 -21 -49 -9 -115 -23 -148 -31 -236 -56
-293 -70 -395 -100 -272 -81 -538 -176 -765 -275 -276 -120 -629 -312 -810
-439 -143 -100 -292 -215 -419 -324 -169 -145 -588 -563 -850 -847 -104 -113
-210 -227 -235 -255 -49 -53 -251 -283 -389 -444 -121 -141 -354 -453 -487
-651 -116 -175 -148 -219 -105 -145 53 92 58 103 52 111 -4 4 -2 4 4 1 6 -3
19 8 29 26 10 18 29 45 42 60 13 16 20 34 17 39 -4 6 -2 8 3 5 17 -11 25 24
10 42 -12 14 -11 18 4 33 9 9 20 14 23 10 11 -10 6 -21 -11 -24 -17 -3 -17 -4
-1 -10 12 -5 21 -1 28 12 7 14 7 20 0 20 -6 0 -6 7 2 20 7 11 16 20 21 20 4 0
5 -5 1 -12 -4 -7 -3 -8 5 -4 6 4 9 11 6 16 -3 4 1 11 7 14 7 4 3 4 -9 2 l-22
-4 24 42 c51 85 64 114 57 121 -4 5 -1 5 6 1 9 -5 9 -12 1 -27 -6 -12 -8 -23
-5 -27 3 -3 6 0 6 7 0 7 4 10 9 7 4 -3 7 7 5 22 -3 32 12 53 33 45 11 -5 14
-1 9 13 -3 10 -1 26 5 34 8 12 9 9 4 -9 -5 -15 -3 -21 3 -17 6 3 13 20 17 36
4 17 11 30 16 30 5 0 9 7 9 15 0 17 16 20 24 6 7 -11 42 -7 39 5 -1 5 -4 17
-8 26 -4 10 2 25 16 39 14 14 18 24 11 27 -7 2 -5 9 6 21 11 11 20 14 25 7 5
-7 7 -2 4 12 -3 14 -1 20 6 15 6 -4 8 2 5 15 -4 12 -2 20 3 16 5 -3 9 -15 9
-27 0 -17 2 -19 9 -8 5 8 7 21 3 29 -3 10 -1 13 6 8 8 -5 12 0 12 14 0 15 5
20 14 17 9 -4 12 0 10 11 -5 20 31 66 45 58 5 -3 16 10 26 29 10 23 22 35 33
33 20 -4 33 -19 25 -31 -3 -4 -11 0 -18 10 -7 10 -16 15 -19 12 -9 -9 -14 -69
-6 -74 4 -2 7 7 6 20 0 14 4 25 9 24 6 0 8 -8 7 -17 -3 -12 2 -11 17 7 11 13
18 28 14 34 -3 5 -1 7 4 4 6 -4 17 0 24 9 16 19 23 78 8 69 -5 -4 -9 -17 -7
-28 1 -12 -1 -28 -6 -35 -6 -10 -11 -9 -22 5 -17 23 -17 33 -1 33 7 0 18 9 25
21 7 12 16 18 19 15 4 -3 15 1 25 11 10 9 21 13 25 9 4 -4 -5 -18 -20 -32 -15
-14 -27 -30 -27 -37 0 -7 16 6 34 28 27 32 32 43 23 55 -9 12 -9 13 3 3 11
-10 17 -9 32 4 20 18 25 38 6 26 -19 -11 -37 -12 -43 -3 -3 5 -1 11 4 14 5 4
13 2 16 -4 5 -8 11 -7 21 1 8 6 14 8 14 4 0 -4 7 -2 15 5 9 7 13 21 10 31 -3
9 -1 20 4 24 7 3 8 0 5 -9 -3 -9 -2 -16 3 -16 16 0 44 36 36 45 -5 4 -2 5 5 1
7 -4 15 0 19 11 4 10 14 23 22 30 13 10 11 11 -11 7 -17 -3 -28 0 -28 7 0 6 9
9 20 6 16 -4 20 0 20 19 0 13 9 32 20 42 11 9 32 30 47 46 16 16 45 47 65 68
21 20 36 43 34 50 -1 7 -1 10 1 6 8 -14 23 -9 23 7 0 8 6 12 13 10 6 -3 23 11
35 31 19 29 21 38 10 45 -10 7 -10 9 2 9 9 0 21 14 28 32 6 17 15 29 18 25 4
-3 3 -14 -1 -24 -5 -10 -7 -21 -7 -25 1 -5 -3 -8 -9 -8 -6 0 -9 -6 -6 -12 2
-7 -5 -26 -17 -43 l-21 -30 32 25 c19 15 30 31 27 40 -3 8 -2 12 1 8 10 -10
44 23 39 37 -3 7 8 24 25 38 16 13 27 28 23 32 -4 5 -1 5 6 1 7 -4 9 -13 6
-19 -4 -7 11 5 32 26 30 28 36 40 26 46 -11 7 -10 9 3 14 9 4 13 3 10 -3 -3
-6 -3 -10 2 -10 11 0 69 73 65 82 -1 5 2 7 7 5 13 -3 158 139 154 153 0 3 3 4
9 2 5 -1 57 44 116 101 59 57 130 125 157 150 42 39 46 45 25 41 -20 -5 -22
-3 -10 5 8 6 22 8 31 6 8 -3 28 8 45 26 16 17 50 46 77 66 26 19 44 40 40 45
-3 7 -1 8 5 4 6 -4 20 1 31 11 17 14 18 20 8 32 -11 14 -10 14 6 2 14 -11 20
-11 33 0 14 11 13 15 -7 30 -28 21 -59 9 -59 -23 0 -16 -3 -19 -11 -11 -15 15
-42 -1 -98 -55 -24 -24 -49 -41 -55 -39 -6 2 -21 -7 -33 -20 -12 -12 -27 -23
-33 -23 -5 0 -10 -7 -10 -16 0 -8 -5 -12 -11 -8 -14 9 10 -38 25 -48 8 -5 7
-8 -2 -8 -7 0 -15 7 -18 15 -6 16 -34 21 -34 7 0 -5 -26 -22 -57 -38 -58 -29
-93 -56 -93 -73 0 -5 -12 -17 -27 -26 -16 -10 -39 -31 -52 -47 -13 -15 -32
-28 -42 -28 -13 0 -19 -7 -19 -22 0 -12 -3 -18 -7 -15 -3 4 -11 -3 -17 -16 -7
-12 -18 -23 -26 -23 -32 -3 -34 -6 -15 -14 19 -7 18 -8 -6 -18 -15 -6 -34 -21
-43 -34 -14 -19 -18 -21 -26 -8 -7 12 -12 8 -21 -18 -8 -24 -19 -34 -39 -39
-20 -3 -30 -13 -35 -31 -4 -15 -9 -21 -13 -15 -5 8 -12 8 -24 -1 -20 -15 -13
-27 10 -19 10 4 13 2 8 -6 -4 -6 -16 -9 -25 -6 -20 6 -46 -19 -36 -35 3 -6 -3
-10 -14 -10 -14 0 -21 -6 -21 -20 0 -13 -5 -18 -15 -14 -10 4 -21 -5 -32 -25
-10 -17 -23 -31 -30 -31 -7 0 -20 -11 -30 -25 -10 -14 -44 -52 -75 -84 -32
-32 -58 -63 -58 -70 0 -6 -5 -11 -12 -11 -11 0 -112 -99 -113 -111 0 -8 -101
-121 -195 -221 -36 -37 -74 -80 -85 -94 -11 -14 -38 -44 -60 -68 -68 -71 -101
-110 -108 -129 -3 -9 -11 -16 -16 -15 -5 2 -21 -12 -35 -30 -13 -19 -41 -51
-60 -72 -20 -22 -36 -43 -36 -48 0 -4 -13 -19 -30 -32 -16 -14 -29 -30 -30
-35 0 -6 -9 -16 -20 -23 -11 -7 -20 -19 -20 -27 0 -8 -4 -15 -8 -15 -5 0 -15
-11 -22 -25 -7 -14 -21 -25 -31 -25 -12 0 -16 -6 -12 -19 4 -15 0 -20 -16 -18
-13 1 -21 8 -21 20 0 10 4 15 10 12 5 -3 7 0 4 8 -5 13 51 120 79 149 54 58
97 121 99 142 1 14 8 26 15 26 7 0 15 11 19 24 3 14 12 23 22 22 11 -1 17 6
17 19 0 11 8 29 17 39 10 10 15 23 12 28 -3 5 -2 8 3 7 21 -4 33 2 33 15 0 8
8 21 19 28 10 7 21 23 25 36 4 12 18 30 32 38 15 10 24 26 24 41 0 18 4 24 14
20 9 -4 13 -1 10 7 -3 7 0 23 6 37 9 21 10 21 6 2 -5 -29 18 -20 33 13 14 32
14 51 -1 57 -12 5 1 8 42 11 8 1 23 18 33 39 10 21 24 40 32 43 8 4 15 10 15
16 0 5 -5 6 -12 2 -7 -4 -8 -3 -4 4 4 6 14 8 23 5 11 -4 14 -3 9 6 -11 17 40
88 74 103 15 6 26 18 23 24 -3 7 4 20 15 30 18 15 19 19 6 32 -13 13 -17 12
-34 -3 -15 -13 -31 -16 -65 -13 -25 3 -45 2 -45 -3 0 -5 -13 -9 -30 -9 -18 0
-30 -5 -30 -13 0 -8 -6 -14 -12 -14 -7 0 -25 -4 -40 -8 -22 -6 -27 -3 -31 17
-3 15 -5 10 -6 -14 -1 -46 -10 -48 -36 -5 l-19 32 -7 -50 -6 -50 -1 49 -2 48
-62 -5 c-48 -3 -58 -2 -40 6 12 5 22 18 22 29 0 10 4 18 9 18 4 0 8 10 7 23
-1 18 -6 21 -28 19 -27 -3 -28 -1 -28 37 0 29 4 41 14 41 9 0 15 15 18 45 l3
45 -77 0 c-65 0 -77 3 -81 18 -2 9 -2 -2 0 -25 l4 -42 -43 -3 c-30 -2 -44 -8
-46 -19 -2 -13 5 -15 35 -14 21 2 46 6 56 10 10 4 17 3 17 -4 0 -6 -4 -11 -10
-11 -5 0 -10 -18 -10 -40 0 -40 0 -40 -39 -40 -22 0 -43 5 -46 10 -3 6 -10 10
-16 10 -5 0 -9 -4 -9 -10 0 -5 7 -10 15 -10 12 0 15 -10 14 -43 -2 -36 -6 -43
-23 -43 -19 0 -21 5 -17 43 2 35 0 43 -14 43 -10 0 -26 10 -36 22 -11 11 -22
18 -26 14 -4 -4 -1 -12 7 -17 11 -8 12 -12 3 -16 -7 -2 -13 -11 -13 -19 0 -8
-9 -14 -20 -14 -13 0 -20 -7 -20 -19 0 -25 -9 -30 -52 -33 -31 -3 -33 -5 -30
-32 4 -25 2 -28 -16 -24 -16 4 -20 2 -17 -13 2 -11 -1 -16 -9 -13 -9 3 -16 -6
-20 -26 -3 -17 -10 -29 -16 -25 -9 6 -15 -8 -11 -29 4 -21 -12 -47 -26 -42 -9
4 -17 -1 -20 -14 -4 -13 -14 -20 -32 -21 -17 -1 -20 -3 -8 -6 23 -6 21 -21 -5
-44 -26 -21 -58 -25 -58 -7 0 6 -3 8 -6 5 -4 -4 -2 -12 4 -20 8 -10 6 -16 -11
-27 -12 -8 -26 -13 -32 -11 -5 1 -7 -1 -2 -5 8 -8 -21 -44 -36 -44 -11 0 -67
-59 -67 -71 0 -5 5 -9 12 -9 9 0 9 -3 0 -12 -10 -10 -15 -10 -22 2 -8 12 -10
11 -10 -7 0 -17 4 -21 17 -16 12 5 8 -2 -9 -20 -15 -15 -32 -27 -38 -27 -6 0
-9 -4 -6 -8 2 -4 -4 -8 -14 -8 -10 0 -17 3 -14 7 2 4 -3 14 -11 22 -20 20 -19
27 4 27 23 0 37 30 19 42 -8 5 -9 8 -2 8 7 0 18 20 25 44 7 25 16 43 20 41 3
-3 17 7 29 20 22 23 22 25 4 25 -18 1 -18 1 -1 14 9 7 17 18 17 23 0 6 7 16
15 23 8 7 13 16 10 20 -3 5 2 15 10 23 8 9 15 20 15 26 0 5 7 14 16 19 9 5 14
11 12 15 -5 9 105 189 119 194 7 3 13 13 13 22 0 19 49 100 80 133 11 12 20
27 20 34 0 7 8 19 19 26 10 7 22 24 26 38 9 28 82 130 93 130 4 0 8 10 9 21 1
12 9 29 17 38 9 10 13 21 9 24 -3 4 -1 7 5 7 7 0 12 5 12 11 0 7 9 21 21 33
26 26 161 206 155 206 -2 0 8 14 24 31 71 76 80 86 80 93 0 4 5 12 10 19 6 7
26 30 45 52 19 22 35 43 35 48 0 4 8 15 18 26 57 61 72 81 72 95 0 9 -4 16 -9
16 -17 0 -61 -47 -61 -65 0 -12 -6 -16 -20 -12 -11 3 -21 1 -21 -4 -1 -5 -2
-13 -3 -19 0 -5 -5 -10 -11 -11 -5 -1 -22 -10 -37 -21 -23 -16 -28 -17 -28 -4
0 8 9 17 20 21 11 3 19 9 17 13 -2 7 10 23 46 63 9 10 17 21 17 24 0 7 19 31
43 53 9 9 17 22 17 29 0 7 7 13 14 13 8 0 28 17 43 38 15 20 31 38 36 40 4 2
7 7 7 12 0 10 59 70 69 70 4 0 23 21 43 48 43 55 200 217 242 250 17 13 24 22
15 22 -8 1 -2 7 13 16 35 18 78 58 78 71 0 6 9 13 20 16 11 3 19 11 18 17 -2
7 6 17 17 23 30 18 48 37 41 44 -3 3 -12 0 -21 -7 -8 -7 -15 -9 -15 -5 0 4 -7
2 -15 -5 -8 -7 -24 -10 -34 -7 -14 3 -18 1 -14 -9 3 -8 -1 -14 -10 -14 -19 0
-53 -18 -98 -52 -20 -16 -44 -28 -54 -28 -11 0 -15 -5 -11 -15 5 -14 -41 -43
-78 -49 -9 -1 -22 -8 -28 -14 -7 -7 -18 -12 -25 -12 -7 0 -13 -7 -13 -15 0
-11 -11 -15 -40 -15 -30 0 -40 -4 -40 -16 0 -20 -27 -47 -40 -39 -5 3 -10 -1
-10 -9 0 -10 -9 -16 -21 -16 -13 0 -23 -8 -26 -21 -4 -14 -11 -18 -22 -14 -29
12 -36 10 -33 -7 2 -11 -3 -18 -13 -18 -8 0 -15 -4 -15 -10 0 -5 -9 -10 -21
-10 -11 0 -17 -4 -14 -10 3 -5 -1 -10 -9 -10 -9 0 -16 -7 -16 -15 0 -8 -9 -15
-20 -15 -12 0 -25 -10 -32 -25 -6 -14 -17 -25 -24 -25 -6 0 -15 -7 -18 -16 -4
-10 -13 -13 -26 -9 -14 4 -20 2 -20 -8 0 -9 -18 -21 -42 -29 -31 -11 -44 -21
-46 -36 -2 -14 -11 -22 -22 -22 -10 0 -22 -4 -25 -10 -3 -5 -13 -10 -21 -10
-8 0 -26 -12 -39 -27 -21 -25 -24 -26 -30 -10 -9 21 -25 23 -25 2 0 -8 -13
-21 -30 -30 -16 -9 -30 -19 -30 -23 0 -9 -59 -32 -84 -32 -9 0 -19 -7 -22 -15
-4 -10 -20 -15 -44 -15 -22 0 -41 -4 -45 -10 -3 -5 -13 -7 -23 -4 -14 5 -14 4
-3 -4 12 -8 8 -11 -15 -15 -17 -3 -14 -3 8 -2 34 3 37 1 28 -15 -11 -20 -67
-43 -72 -30 -2 5 -14 11 -27 13 -28 4 -39 26 -40 76 -1 47 -7 36 -15 -26 -6
-44 -4 -53 9 -53 8 0 15 -9 15 -20 0 -11 5 -20 12 -20 6 0 9 -3 6 -6 -3 -3
-22 -2 -42 1 l-36 7 0 58 c0 37 5 60 13 63 7 4 3 8 -11 13 -20 6 -21 8 -7 18
14 10 12 12 -9 14 -14 1 -25 -2 -24 -6 1 -4 -6 -23 -14 -42 -10 -21 -17 -28
-17 -17 -1 14 -5 16 -20 8 -10 -6 -22 -7 -26 -3 -4 4 -5 -6 -3 -23 3 -16 3
-24 1 -17 -3 6 -11 12 -20 12 -10 0 -13 -6 -9 -16 10 -27 -4 -34 -25 -13 -19
19 -19 19 -41 -1 -12 -11 -24 -17 -27 -14 -3 3 1 9 8 14 8 4 11 15 8 23 -4 11
1 17 20 19 15 2 29 9 31 17 4 11 -2 12 -23 7 -23 -6 -26 -5 -18 6 6 7 11 49
11 93 1 64 4 82 18 92 16 12 17 13 1 13 -22 0 -22 19 0 35 9 7 22 28 28 46 6
19 21 38 33 44 18 8 22 16 18 45 -2 21 2 44 10 55 8 10 14 26 14 35 0 8 9 22
19 29 16 11 17 18 8 32 -9 14 -9 21 1 31 9 9 12 9 12 -2 0 -13 2 -13 10 0 6 9
5 17 -2 21 -15 9 7 80 34 111 10 12 18 29 18 40 0 10 4 18 8 18 4 0 9 26 10
57 2 34 9 64 18 74 11 13 12 19 4 24 -7 4 -16 2 -20 -5 -6 -10 -9 -9 -13 1 -4
10 -6 9 -6 -3 -1 -19 -21 -26 -21 -8 0 6 -4 10 -10 10 -5 0 -10 -11 -10 -25 0
-21 -5 -25 -30 -25 -27 0 -35 -9 -31 -33 1 -5 -3 -5 -9 -2 -7 4 -14 -2 -17
-14 -3 -12 -9 -21 -13 -21 -4 0 -11 -7 -14 -16 -3 -8 -2 -12 4 -9 6 3 10 -3
10 -14 0 -11 -8 -22 -18 -25 -32 -10 -62 -46 -62 -72 0 -21 -4 -24 -20 -19
-11 4 -20 2 -20 -4 0 -6 5 -11 10 -11 6 0 10 -4 10 -10 0 -5 -8 -10 -19 -10
-25 0 -45 -25 -38 -51 5 -17 3 -18 -10 -7 -14 11 -15 11 -11 -2 2 -8 1 -19 -4
-25 -5 -5 -18 -21 -29 -35 -20 -24 -37 -59 -44 -90 -7 -34 -25 -70 -35 -70 -5
0 -10 -7 -10 -15 0 -15 -19 -55 -31 -65 -4 -3 -10 -16 -14 -30 -4 -14 -15 -30
-24 -37 -9 -6 -17 -15 -17 -20 -5 -29 -18 -53 -29 -53 -7 0 -12 -11 -12 -26 0
-14 -10 -35 -22 -48 -11 -12 -21 -25 -21 -29 0 -4 -8 -15 -17 -25 -38 -40 -53
-63 -59 -89 -4 -16 -22 -44 -41 -63 -18 -19 -33 -41 -33 -49 0 -8 -24 -38 -52
-67 -116 -117 -128 -131 -129 -160 0 -16 -3 -24 -5 -17 -7 17 -34 4 -27 -13 3
-9 -1 -14 -12 -14 -9 0 -14 -4 -10 -10 3 -5 -4 -19 -15 -30 -11 -11 -23 -34
-27 -50 -3 -17 -9 -30 -14 -30 -15 0 -51 -40 -36 -40 7 0 5 -4 -4 -10 -16 -9
-35 -55 -30 -74 1 -5 -5 -4 -13 4 -14 11 -16 8 -16 -18 0 -17 -5 -43 -10 -58
-6 -15 -13 -49 -15 -75 -2 -26 -9 -57 -14 -68 -6 -11 -11 -35 -11 -53 0 -18
-7 -58 -16 -88 -9 -30 -18 -68 -21 -85 -4 -26 -42 -118 -74 -177 -5 -10 -9
-25 -9 -33 0 -9 -7 -18 -15 -21 -10 -4 -13 -13 -10 -25 4 -13 1 -19 -8 -19
-10 0 -13 -10 -10 -40 3 -35 1 -40 -17 -40 -11 0 -20 5 -20 11 0 6 -6 17 -14
24 -12 12 -15 12 -20 -1 -3 -9 -6 -24 -6 -34 0 -9 -7 -23 -15 -30 -14 -12 -14
-15 1 -31 12 -13 13 -19 4 -19 -7 0 -10 -7 -6 -17 5 -14 3 -14 -9 2 -34 47
-38 49 -46 29 -4 -10 -8 -36 -8 -56 -2 -73 -18 -37 -28 60 -10 110 -2 253 20
361 8 40 11 69 7 65 -15 -16 -51 -218 -61 -344 -5 -69 -7 -177 -3 -240 4 -63
4 -113 1 -110 -3 3 -10 69 -15 147 -15 208 -33 220 -30 19 2 -117 6 -160 16
-164 8 -2 12 -28 12 -83 0 -62 3 -81 15 -85 11 -5 15 -24 15 -80 0 -59 3 -74
15 -74 12 0 15 -16 15 -85 0 -69 3 -85 15 -85 12 0 15 -14 15 -70 0 -40 4 -70
10 -70 6 0 10 -22 10 -49 0 -31 6 -55 15 -65 9 -8 15 -33 15 -58 0 -24 7 -53
15 -64 8 -10 15 -38 15 -61 0 -31 4 -43 15 -43 12 0 15 -13 15 -60 0 -47 3
-60 15 -60 12 0 15 -17 15 -95 0 -76 3 -97 15 -101 11 -5 15 -23 15 -75 0 -55
3 -69 15 -69 12 0 15 -16 15 -85 0 -47 4 -85 9 -85 4 0 11 -30 14 -66 2 -36
10 -71 16 -77 6 -6 11 -33 11 -59 0 -34 5 -50 15 -54 11 -4 15 -21 15 -59 0
-38 4 -55 15 -59 11 -4 15 -21 15 -61 0 -42 3 -55 15 -55 11 0 15 -11 15 -39
0 -25 5 -41 15 -45 8 -3 15 -17 15 -31 0 -16 6 -25 15 -25 10 0 15 -10 15 -30
0 -16 4 -30 10 -30 5 0 12 -11 16 -25 3 -14 10 -25 15 -25 5 0 9 -11 9 -25 0
-14 7 -28 15 -31 8 -4 15 -12 15 -19 0 -8 7 -20 15 -28 13 -13 11 -16 -10 -21
-14 -4 -25 -11 -25 -16 0 -6 -20 -10 -45 -10 -32 0 -45 -4 -45 -14 0 -8 -10
-17 -22 -20 -13 -3 3 -3 35 0 62 5 72 -1 30 -17 -21 -8 -24 -12 -13 -19 8 -5
17 -7 21 -4 4 2 11 -6 15 -18 3 -12 13 -28 20 -36 19 -19 17 -35 -7 -66 -34
-43 -45 -167 -17 -203 22 -28 74 -143 69 -151 -4 -6 -26 -4 -56 4 -57 15 -130
17 -160 4 -18 -8 -18 -9 5 -10 14 -2 28 -2 33 -1 4 0 7 -3 7 -9 0 -5 7 -10 15
-10 9 0 12 -6 9 -15 -4 -10 0 -15 15 -15 12 0 21 -4 21 -10 0 -5 21 -19 48
-30 26 -11 55 -25 64 -30 10 -6 24 -10 32 -10 8 0 21 -8 28 -18 7 -10 26 -27
41 -39 15 -12 27 -24 25 -26 -2 -3 5 -14 15 -25 29 -31 13 -44 -46 -37 -28 3
-57 11 -63 16 -8 7 -14 6 -19 -1 -4 -6 -15 -8 -26 -5 -26 8 -25 -16 1 -35 11
-8 20 -20 20 -26 0 -6 9 -14 20 -17 11 -3 24 -16 29 -29 6 -13 10 -16 11 -8 0
12 3 11 11 -3 6 -10 22 -22 35 -27 29 -12 38 -31 30 -65 -5 -18 -13 -25 -32
-25 -25 0 -25 0 -7 -25 10 -13 23 -25 28 -25 6 0 15 -10 20 -22 6 -12 19 -26
30 -32 11 -6 27 -18 35 -27 8 -8 36 -30 63 -48 26 -17 47 -38 47 -46 0 -8 6
-15 13 -15 8 0 20 -11 27 -25 7 -13 16 -23 19 -22 11 3 61 -54 61 -69 0 -8 4
-14 8 -14 4 0 15 -12 24 -28 9 -15 26 -38 37 -51 12 -13 22 -37 22 -53 1 -15
2 -33 3 -40 1 -6 -5 -13 -11 -15 -7 -3 -13 1 -13 7 0 14 -25 40 -39 40 -6 0
-11 5 -11 10 0 19 -42 52 -71 55 l-29 4 6 -72 c4 -40 7 -90 8 -112 1 -22 5
-46 10 -53 4 -7 2 -12 -3 -12 -6 0 -11 -7 -11 -16 0 -8 4 -13 8 -10 5 3 7 -24
6 -60 -1 -35 2 -67 8 -70 5 -3 0 -15 -11 -25 -12 -11 -21 -25 -21 -32 0 -19
-37 -47 -63 -47 -12 0 -47 13 -78 29 -37 18 -62 25 -70 20 -8 -5 -31 -9 -51
-9 -43 0 -53 -10 -33 -36 8 -10 15 -31 15 -46 0 -15 5 -30 11 -33 6 -4 8 -13
5 -21 -4 -9 42 -46 141 -111 152 -102 273 -193 333 -250 19 -18 37 -33 41 -33
4 0 15 -12 25 -27 12 -19 -4 -9 -48 30 -68 59 -80 66 -77 44 4 -31 0 -38 -15
-25 -8 7 -13 17 -13 22 1 4 -7 10 -17 12 -11 1 -23 10 -28 18 -5 9 -15 16 -22
16 -8 0 -19 7 -26 15 -7 8 -16 13 -20 10 -14 -8 12 -50 46 -76 18 -13 32 -29
31 -34 -3 -13 40 -55 56 -55 7 0 17 -8 24 -18 12 -19 66 -49 106 -58 38 -9 82
-5 120 11 20 8 49 15 64 15 15 0 81 9 145 20 214 35 392 45 549 31 211 -19
335 -58 400 -129 l34 -36 -30 18 c-16 10 -25 13 -18 6 19 -21 4 -38 -48 -51
-31 -8 -51 -19 -55 -31 -3 -10 -10 -18 -16 -18 -6 0 -8 -9 -5 -20 3 -11 1 -23
-4 -26 -5 -3 -9 -22 -9 -43 0 -44 31 -83 82 -107 18 -8 40 -19 48 -24 50 -31
148 -67 205 -74 45 -6 179 -43 278 -78 71 -25 85 -33 76 -44 -9 -11 -8 -14 3
-14 7 0 21 -9 31 -20 14 -17 14 -20 2 -20 -8 0 -15 -5 -15 -11 0 -5 -4 -8 -9
-5 -13 8 -82 -64 -74 -77 3 -7 3 -9 -2 -5 -5 5 -16 -6 -26 -22 -11 -17 -23
-30 -28 -30 -4 0 -11 -14 -15 -31 -3 -18 -10 -28 -16 -24 -10 6 -112 -89 -104
-97 2 -2 -6 -5 -18 -5 -12 -1 -34 -15 -49 -30 -49 -50 -73 -68 -111 -86 -21
-10 -38 -21 -38 -26 0 -4 -12 -14 -27 -21 -16 -8 -49 -29 -76 -47 -26 -18 -54
-33 -62 -33 -8 0 -15 -7 -15 -15 0 -8 -5 -15 -11 -15 -18 0 -129 -53 -129 -62
0 -4 -10 -8 -22 -8 -13 0 -36 -11 -52 -25 -17 -14 -36 -23 -43 -20 -8 2 -11 1
-8 -5 11 -18 -38 -50 -77 -50 -32 0 -38 -3 -38 -21 0 -16 -3 -19 -13 -11 -8 7
-18 7 -27 2 -8 -5 -18 -6 -24 -3 -5 3 -6 1 -2 -6 9 -15 -30 -51 -55 -51 -10 0
-25 -7 -33 -16 -10 -9 -24 -13 -36 -9 -16 5 -20 2 -20 -14 0 -17 -6 -21 -30
-21 -16 0 -33 -7 -38 -16 -5 -9 -29 -17 -65 -21 -67 -7 -76 -22 -14 -24 39 -1
38 -2 -18 -11 -33 -5 -75 -7 -94 -4 -26 4 -34 1 -38 -13 -3 -11 -16 -21 -29
-24 -13 -2 -21 0 -18 4 3 5 -2 9 -11 9 -9 0 -14 -4 -11 -9 3 -5 -1 -12 -10
-15 -8 -3 -13 -2 -10 3 3 5 -1 11 -9 15 -18 7 -20 33 -3 38 9 3 8 12 -5 32
-16 23 -20 25 -33 12 -24 -24 -39 -9 -41 41 -1 25 -5 49 -10 52 -18 14 -53 71
-53 89 0 10 -3 22 -7 26 -7 6 -11 20 -18 61 -2 11 -4 22 -5 25 -1 3 -2 13 -1
23 1 9 -3 17 -8 17 -6 0 -11 -7 -11 -15 0 -8 -4 -15 -9 -15 -5 0 -12 23 -16
50 -5 36 -14 55 -31 69 -18 14 -24 29 -25 57 0 34 -2 36 -9 17 -5 -13 -14 -23
-20 -23 -17 0 -22 27 -10 51 11 19 10 21 -4 16 -11 -5 -16 -1 -16 13 0 19 -8
23 -67 35 -18 4 -33 11 -33 16 0 5 -9 9 -20 9 -13 0 -20 7 -20 18 0 12 -14 22
-47 31 -27 8 -55 18 -63 22 -46 21 -70 29 -117 34 -29 4 -53 12 -53 17 0 7
-20 9 -55 5 -48 -5 -56 -3 -66 15 -8 15 -14 17 -22 9 -6 -6 -47 -11 -94 -11
-60 0 -83 -4 -83 -12 0 -8 -3 -9 -8 -3 -4 6 -22 10 -39 11 -28 0 -33 -3 -33
-23 0 -25 -10 -29 -27 -12 -7 7 -17 8 -25 3 -7 -5 -35 -9 -63 -9 -39 0 -49 -3
-47 -15 2 -11 -2 -10 -12 4 -11 13 -31 20 -68 22 -29 2 -75 6 -102 10 -34 5
-50 3 -56 -6 -6 -9 -13 -8 -33 4 -17 11 -34 15 -52 10 -21 -5 -26 -4 -23 7 3
9 18 13 44 12 l39 -2 -34 15 c-36 16 -101 12 -101 -6 0 -17 -31 -11 -57 10
-16 12 -41 20 -66 20 -34 0 -39 2 -34 20 3 11 1 23 -4 26 -5 3 -7 8 -5 12 4 6
-16 7 -91 3 -16 -1 -25 -9 -29 -27 -6 -22 -8 -24 -16 -10 -7 13 -13 14 -30 5
-15 -8 -19 -8 -14 0 5 7 -4 11 -23 11 -21 0 -31 5 -31 16 0 8 -5 12 -10 9 -6
-3 -10 -2 -10 3 0 5 -13 12 -30 16 -16 3 -30 12 -30 20 0 17 -30 26 -90 26
-57 0 -86 16 -48 25 16 4 25 12 22 20 -6 14 -44 9 -44 -6 0 -5 -20 -9 -44 -9
-35 0 -45 -4 -49 -20 -6 -22 -27 -28 -27 -7 0 7 -7 22 -15 33 -11 14 -14 15
-9 2 10 -29 -12 -56 -42 -50 -24 4 -25 3 -13 -16 11 -17 11 -24 1 -34 -10 -10
-14 -8 -18 10 -10 35 -24 25 -24 -17 0 -21 -3 -52 -6 -69 -5 -26 -11 -31 -33
-29 -16 1 -28 10 -33 22 -5 16 -6 14 -8 -10 -1 -16 -2 -34 0 -40 1 -5 -7 -3
-17 6 -10 8 -31 15 -48 15 -25 -1 -31 -5 -33 -28 -2 -16 2 -28 8 -28 6 0 8 -4
5 -10 -11 -18 -33 -11 -28 9 3 10 0 28 -6 40 -9 16 -9 21 1 22 7 0 1 5 -14 11
-37 13 -37 43 0 56 l27 10 -27 1 c-20 1 -26 5 -22 16 4 8 10 12 15 9 5 -3 9 0
9 5 0 6 -5 11 -11 11 -10 0 -39 24 -39 33 0 3 7 8 16 11 8 3 12 2 9 -4 -3 -6
1 -10 9 -10 9 0 16 4 16 10 0 5 11 12 25 16 26 6 33 28 13 40 -7 4 -8 3 -4 -4
4 -7 1 -12 -8 -12 -9 0 -15 6 -14 12 2 7 -6 13 -18 12 -11 0 -21 6 -21 13 0 7
7 12 16 11 9 -2 15 2 14 9 -2 10 52 38 69 35 4 -1 5 5 2 13 -4 8 -1 15 5 15 6
0 11 18 11 43 0 31 6 49 20 62 11 10 20 25 20 32 0 8 -21 -6 -46 -31 -43 -43
-64 -56 -64 -39 0 9 50 53 61 53 4 0 11 9 14 20 3 11 13 20 21 20 8 0 14 10
14 25 0 14 9 34 20 45 11 11 20 28 20 38 1 24 24 52 44 52 9 0 16 6 16 13 0
19 24 67 33 67 5 0 6 8 2 19 -3 10 1 24 10 31 8 7 12 17 9 22 -3 5 2 8 12 6
13 -2 22 10 36 52 11 30 24 57 29 61 5 3 14 33 20 67 6 34 15 62 20 62 4 0 6
6 3 14 -3 8 2 36 11 62 9 26 13 54 9 63 -4 9 -6 32 -5 52 1 21 -2 40 -8 44 -6
3 -11 14 -11 23 0 10 -9 35 -20 56 -10 22 -17 42 -15 47 3 4 1 10 -5 14 -5 3
-10 -1 -10 -10 0 -9 -5 -13 -10 -10 -6 4 -8 10 -5 15 12 20 -69 29 -135 15
-36 -7 -66 -12 -69 -10 -2 2 -20 -7 -41 -20 -21 -13 -50 -27 -64 -31 -14 -3
-30 -12 -37 -20 -6 -8 -18 -14 -25 -14 -8 0 -19 -12 -24 -26 -6 -14 -14 -22
-20 -19 -5 3 -10 0 -10 -7 0 -7 -16 -29 -36 -48 -20 -19 -46 -56 -57 -83 -13
-28 -24 -42 -28 -35 -4 6 -5 18 -2 27 3 11 0 10 -12 -4 -16 -19 -17 -18 -13
30 3 28 21 90 41 140 20 49 34 91 32 94 -5 4 -36 -64 -71 -154 -22 -58 -23
-59 -24 -25 -1 19 -4 28 -7 20 -4 -8 -12 -21 -20 -28 -7 -7 -13 -22 -13 -32 0
-10 -4 -22 -10 -25 -5 -3 -10 -28 -10 -56 0 -37 -4 -49 -15 -49 -12 0 -15 -13
-15 -60 0 -47 -3 -60 -15 -60 -12 0 -15 -15 -15 -71 0 -49 -4 -75 -15 -85 -12
-12 -15 -44 -15 -155 0 -117 2 -139 15 -139 12 0 15 -13 15 -60 0 -47 3 -60
15 -60 11 0 15 -11 15 -40 0 -29 4 -40 15 -40 10 0 15 -10 15 -29 0 -16 3 -31
8 -33 16 -7 42 -71 42 -104 0 -24 5 -34 15 -34 12 0 15 -14 15 -65 0 -49 4
-67 15 -71 11 -5 15 -21 15 -60 0 -39 4 -56 15 -60 10 -4 15 -20 15 -44 0 -24
5 -40 15 -44 9 -3 15 -19 15 -41 0 -22 6 -38 15 -41 9 -4 15 -19 15 -35 0 -16
5 -29 10 -29 6 0 10 -11 10 -24 0 -14 7 -31 15 -40 8 -8 15 -22 15 -30 0 -9 7
-16 15 -16 10 0 15 -10 15 -30 0 -20 5 -30 15 -30 8 0 15 -9 15 -20 0 -11 7
-23 15 -26 8 -4 15 -12 15 -20 0 -8 7 -14 15 -14 8 0 15 -7 15 -15 0 -8 7 -15
15 -15 9 0 15 -9 15 -21 0 -11 6 -27 13 -34 29 -33 37 -45 37 -55 0 -5 6 -10
14 -10 9 0 15 -17 18 -52 3 -29 11 -54 17 -56 16 -5 15 -122 -2 -122 -6 0 -18
-14 -25 -30 -8 -17 -27 -43 -43 -59 -17 -17 -29 -40 -29 -55 0 -16 -6 -26 -15
-26 -8 0 -15 -7 -15 -15 0 -8 -7 -15 -15 -15 -8 0 -15 -7 -15 -15 0 -8 -7 -15
-15 -15 -9 0 -15 -9 -15 -25 0 -14 4 -25 9 -25 11 0 63 59 96 108 13 20 45 60
70 87 l46 50 -37 -60 c-21 -33 -54 -80 -74 -105 -42 -52 -103 -140 -97 -140 6
0 222 291 236 317 8 16 8 22 -1 25 -8 3 -8 9 0 24 11 18 11 18 12 -3 0 -12 4
-24 9 -27 5 -4 12 -28 16 -56 6 -44 4 -54 -24 -94 -16 -25 -72 -93 -122 -152
-51 -59 -126 -152 -167 -208 -40 -55 -85 -114 -98 -129 -14 -15 -52 -69 -84
-120 -33 -51 -66 -101 -75 -112 -14 -19 -14 -18 -5 9 17 48 3 41 -20 -11 -71
-156 -97 -277 -86 -390 8 -83 16 -230 10 -188 -7 53 -25 105 -34 105 -17 0
-12 -90 5 -96 12 -5 15 -34 15 -170 0 -137 3 -166 15 -170 12 -5 15 -26 15
-100 0 -75 3 -96 15 -100 11 -5 15 -21 15 -60 0 -39 4 -56 15 -60 9 -4 15 -19
15 -35 0 -16 5 -29 10 -29 6 0 10 -11 10 -25 0 -14 7 -28 15 -31 9 -4 15 -19
15 -40 0 -22 6 -37 15 -40 8 -4 15 -17 15 -30 0 -14 6 -27 14 -30 8 -3 17 -16
20 -30 4 -13 11 -24 16 -24 6 0 10 -7 10 -15 0 -8 7 -15 15 -15 8 0 15 -7 15
-15 0 -8 7 -15 15 -15 8 0 15 -7 15 -15 0 -8 5 -15 10 -15 6 0 10 -7 10 -15 0
-8 6 -15 14 -15 8 0 17 -11 20 -24 3 -14 16 -28 28 -32 11 -3 31 -17 43 -30
13 -14 34 -24 49 -24 16 0 26 -5 26 -15 0 -8 5 -15 10 -15 6 0 10 -7 10 -15 0
-8 7 -15 15 -15 9 0 15 -9 15 -25 0 -14 7 -28 15 -31 8 -4 15 -15 15 -25 0
-20 33 -59 50 -59 5 0 10 -7 10 -15 0 -8 7 -15 15 -15 8 0 15 -7 15 -15 0 -8
7 -15 15 -15 8 0 15 -4 15 -10 0 -17 39 -50 59 -50 10 0 21 -7 25 -15 4 -11
22 -15 69 -15 45 0 68 -5 77 -15 11 -13 -15 -15 -224 -15 l-236 0 0 -25 c0
-16 6 -25 15 -25 8 0 15 -7 15 -15 0 -8 7 -15 15 -15 8 0 15 -8 15 -17 1 -20
33 -63 48 -63 5 0 12 -7 16 -15 3 -8 14 -15 25 -15 10 0 21 -7 25 -15 3 -8 17
-15 31 -15 16 0 25 -6 25 -15 0 -9 9 -15 24 -15 13 0 26 -7 30 -15 3 -8 12
-15 21 -15 8 0 15 -4 15 -10 0 -5 11 -12 24 -16 14 -3 27 -12 30 -20 3 -8 15
-14 26 -14 12 0 31 -11 44 -25 13 -14 32 -25 44 -25 11 0 22 -7 26 -15 3 -8
17 -15 31 -15 14 0 25 -6 25 -13 0 -7 20 -21 45 -32 25 -11 45 -23 45 -28 0
-8 37 -47 45 -47 7 0 154 -148 186 -188 14 -17 44 -45 67 -62 23 -17 42 -37
42 -45 0 -8 7 -15 15 -15 8 0 15 -7 15 -15 0 -8 6 -15 14 -15 8 0 16 -7 20
-15 3 -8 14 -15 25 -15 10 0 21 -7 25 -15 3 -10 19 -15 45 -15 25 0 41 -5 45
-15 4 -12 24 -15 86 -15 44 0 80 -4 80 -10 0 -5 27 -12 60 -16 33 -4 63 -11
66 -15 3 -5 34 -9 68 -9 44 0 67 -5 76 -15 8 -9 29 -15 55 -15 29 0 45 -5 49
-15 4 -12 23 -15 85 -15 61 0 80 -3 85 -15 4 -12 27 -15 115 -15 87 0 110 -3
115 -15 4 -11 21 -15 58 -15 31 -1 61 -7 72 -15 11 -8 37 -15 58 -15 21 0 38
-4 38 -10 0 -5 27 -12 60 -16 33 -4 63 -11 66 -15 3 -5 40 -9 84 -9 60 0 79
-3 84 -15 4 -12 24 -15 86 -15 64 0 80 -3 80 -15 0 -12 18 -15 100 -15 82 0
100 -3 100 -15 0 -12 16 -15 84 -15 65 0 85 -3 90 -15 3 -10 19 -15 43 -15 21
0 47 -7 57 -15 14 -10 44 -15 96 -15 42 0 81 -5 86 -10 6 -6 34 -13 62 -17 29
-3 52 -10 52 -14 0 -5 31 -9 69 -9 49 0 72 -4 81 -15 9 -10 32 -15 75 -15 43
0 66 -5 75 -15 8 -10 31 -15 70 -15 42 0 59 -4 64 -15 4 -12 25 -15 100 -15
74 0 95 -3 100 -15 4 -11 20 -15 55 -15 27 0 62 -7 77 -15 16 -8 55 -15 86
-15 31 0 59 -4 63 -9 3 -6 37 -13 75 -17 39 -4 73 -11 76 -15 3 -5 34 -9 69
-9 47 0 64 -4 69 -15 4 -12 25 -15 100 -15 74 0 95 -3 100 -15 4 -11 22 -15
71 -15 46 0 71 -5 81 -15 11 -10 37 -15 85 -15 49 0 75 -5 85 -15 10 -10 35
-15 74 -15 36 0 60 -5 62 -12 2 -6 32 -13 69 -16 35 -2 69 -8 75 -13 6 -5 45
-12 88 -15 42 -4 76 -11 76 -15 0 -5 25 -9 56 -9 36 0 61 -5 70 -15 12 -11 39
-15 105 -15 72 0 89 -3 89 -15 0 -12 16 -15 84 -15 65 0 85 -3 90 -15 4 -12
23 -15 83 -15 53 -1 84 -5 97 -15 14 -11 47 -15 116 -15 63 0 100 -4 108 -13
10 -9 104 -13 386 -15 326 -3 376 -1 389 13 11 11 37 15 94 15 54 0 85 5 99
15 13 10 44 14 97 15 60 0 79 3 83 15 5 11 21 15 60 15 39 0 56 4 60 15 4 10
20 15 45 15 28 0 39 4 39 15 0 11 12 15 45 15 25 0 45 4 45 9 0 5 16 12 36 16
20 3 54 17 75 31 21 13 48 24 59 24 11 0 23 7 26 15 4 9 19 15 40 15 22 0 37
6 40 15 4 10 20 15 50 15 32 0 44 4 44 15 0 9 9 15 25 15 14 0 28 7 31 15 4 8
17 15 30 15 13 0 24 4 24 9 0 6 20 13 45 17 25 3 45 10 45 15 0 5 11 9 25 9
14 0 28 7 31 15 4 8 17 15 30 15 14 0 27 7 30 15 4 10 20 15 45 15 28 0 39 4
39 15 0 11 11 15 35 15 22 0 38 6 41 15 4 10 20 15 50 15 32 0 44 4 44 15 0 9
9 15 25 15 14 0 28 7 31 15 4 8 12 15 20 15 7 0 34 11 60 25 26 14 59 25 75
25 15 0 34 7 43 15 8 8 22 15 31 15 8 0 18 7 21 15 4 9 19 15 35 15 19 0 29 5
29 15 0 10 10 15 30 15 20 0 30 5 30 15 0 10 10 15 29 15 16 0 31 6 35 15 3 8
15 15 26 15 11 0 20 5 20 10 0 6 15 10 34 10 19 0 41 7 50 15 8 8 24 15 36 15
11 0 23 7 26 15 4 8 17 15 30 15 14 0 27 7 30 15 4 10 20 15 45 15 28 0 39 4
39 15 0 10 10 15 29 15 16 0 36 7 45 15 8 8 26 15 40 15 14 0 26 4 26 9 0 5
18 12 40 16 22 4 42 11 46 16 3 5 14 9 24 9 10 0 25 7 34 15 8 8 24 15 35 15
12 0 21 6 21 15 0 10 10 15 30 15 20 0 30 5 30 15 0 10 10 15 29 15 16 0 36 7
45 15 8 8 24 15 36 15 11 0 23 7 26 15 4 8 12 15 20 15 8 0 14 4 14 9 0 5 20
12 45 15 25 4 45 11 45 17 0 5 18 9 40 9 29 0 40 4 40 15 0 10 10 15 30 15 20
0 30 5 30 15 0 11 11 15 40 15 27 0 43 5 46 15 4 10 20 15 45 15 28 0 39 4 39
15 0 10 10 15 30 15 20 0 30 5 30 15 0 10 10 15 33 15 21 0 42 9 59 25 21 19
38 25 72 25 26 0 51 6 60 15 8 8 29 15 46 15 18 0 33 6 36 15 4 9 19 15 35 15
19 0 29 5 29 15 0 10 10 15 30 15 20 0 30 5 30 15 0 11 11 15 40 15 29 0 40 4
40 15 0 10 10 15 30 15 17 0 30 4 30 10 0 5 18 13 40 16 22 4 43 11 46 15 3 5
14 9 25 9 11 0 22 7 25 15 4 10 20 15 45 15 26 0 42 5 45 15 4 8 17 15 30 15
14 0 27 7 30 15 4 8 15 15 25 15 11 0 22 7 25 15 4 9 19 15 39 15 18 0 38 7
45 15 7 8 21 15 30 15 17 0 79 28 90 41 3 3 17 9 33 13 15 3 27 11 27 16 0 6
11 10 25 10 14 0 28 7 31 15 4 8 15 15 25 15 20 0 59 33 59 49 0 5 12 11 28
13 19 2 28 9 30 25 l3 23 -373 1 c-205 1 -365 3 -355 6 9 2 17 9 17 14 0 5 24
9 53 9 31 0 61 6 73 15 10 8 41 15 67 15 33 0 49 5 53 15 4 10 20 15 50 15 32
0 44 4 44 15 0 11 11 15 40 15 27 0 43 5 46 15 4 8 17 15 30 15 15 0 24 6 24
15 0 12 13 15 60 15 33 0 60 4 60 10 0 6 13 10 29 10 16 0 36 7 45 15 8 8 26
15 40 15 16 0 26 6 26 15 0 9 9 15 25 15 14 0 28 7 31 15 4 8 17 15 30 15 15
0 24 6 24 15 0 10 10 15 30 15 20 0 30 5 30 15 0 11 12 15 44 15 26 0 51 6 60
15 8 8 26 15 40 15 14 0 26 5 26 10 0 6 9 10 20 10 25 0 120 41 120 52 0 4 9
8 19 8 11 0 26 7 35 15 8 8 26 15 40 15 13 0 31 7 40 15 8 8 28 15 45 15 21 0
31 5 31 15 0 11 11 15 40 15 29 0 40 4 40 15 0 10 10 15 26 15 16 0 36 11 50
25 13 14 28 25 34 25 5 0 10 5 10 10 0 6 11 21 25 34 14 13 25 28 25 35 0 6 7
11 15 11 10 0 15 10 15 30 0 20 5 30 15 30 11 0 15 11 15 40 0 29 4 40 15 40
10 0 15 10 15 30 0 20 5 30 15 30 10 0 15 10 15 29 0 16 6 31 15 35 9 3 15 18
15 40 0 19 5 36 11 38 5 2 13 22 16 46 3 23 10 42 14 42 5 0 9 18 9 41 0 23 7
47 15 55 8 9 15 28 15 44 0 16 7 30 15 34 8 3 15 17 15 31 0 16 6 25 15 25 11
0 15 11 15 39 0 25 5 41 15 45 10 3 15 19 15 46 0 29 4 40 15 40 10 0 15 10
15 34 0 18 7 47 15 62 8 16 15 46 15 67 0 20 5 37 10 37 6 0 10 13 10 29 0 16
6 31 15 35 9 3 15 19 15 41 0 24 4 35 15 35 10 0 15 10 15 29 0 16 6 31 15 35
10 3 15 19 15 45 0 25 5 41 15 45 11 4 15 20 15 56 0 38 4 50 15 50 11 0 15
11 15 39 0 22 5 41 11 43 5 2 13 22 16 46 3 23 10 42 14 42 5 0 9 14 9 30 0
20 5 30 15 30 11 0 15 11 15 40 0 29 4 40 15 40 11 0 15 12 15 45 0 33 4 45
15 45 11 0 15 12 15 44 0 30 5 46 15 50 11 4 15 20 15 56 0 38 4 50 15 50 11
0 15 11 15 36 0 19 7 42 15 50 8 9 15 24 15 35 0 10 5 19 10 19 6 0 10 20 10
45 0 33 4 45 15 45 11 0 15 11 15 40 0 29 4 40 15 40 11 0 15 12 15 45 0 33 4
45 15 45 12 0 15 13 15 55 0 42 3 55 15 55 10 0 15 10 15 29 0 16 6 31 15 35
9 3 15 18 15 39 0 19 7 40 15 47 8 7 15 21 15 31 0 10 5 21 10 24 6 3 10 23
10 44 0 22 6 44 15 51 9 8 15 30 15 56 0 32 4 44 15 44 11 0 15 12 15 44 0 26
6 48 15 56 8 7 15 25 15 40 0 16 7 30 15 34 8 3 15 16 15 30 0 13 5 26 11 28
5 2 13 22 16 46 3 23 9 42 14 42 5 0 12 18 15 40 4 22 11 43 15 46 5 3 9 29 8
57 0 29 -3 45 -6 37 -6 -20 -45 -130 -73 -208 -13 -34 -24 -61 -26 -59 -2 2
27 95 65 208 38 112 70 197 70 189 0 -8 -6 -33 -14 -55 -18 -50 -18 -55 0 -55
11 0 15 11 15 39 0 25 5 41 15 45 10 3 15 19 15 46 0 29 4 40 15 40 10 0 15
10 15 30 0 20 5 30 15 30 11 0 15 11 15 39 0 25 5 41 15 45 9 3 15 19 15 41 0
20 7 43 15 51 8 9 15 28 15 44 0 16 5 32 10 35 5 3 10 21 10 38 -1 30 -1 31
-15 13 -8 -11 -15 -31 -15 -44 0 -13 -6 -36 -14 -50 -8 -15 -22 -49 -31 -77
-15 -44 -43 -123 -75 -209 -6 -16 -13 -27 -15 -24 -3 2 16 65 41 139 25 74
119 352 209 619 90 267 241 708 335 980 312 898 339 981 345 1050 4 62 4 63
-6 22 -7 -29 -15 -42 -24 -39 -9 4 -11 -1 -7 -15 3 -14 1 -19 -6 -14 -8 4 -12
0 -12 -11 -1 -10 -7 -34 -14 -53 -7 -22 -9 -47 -5 -65 8 -29 7 -29 -7 -10 -16
20 -16 20 -10 -1 5 -15 1 -24 -10 -28 -13 -5 -14 -9 -4 -21 7 -9 10 -18 6 -22
-3 -3 -6 -1 -6 6 0 7 -5 9 -11 5 -6 -4 -9 -19 -5 -36 3 -16 2 -27 -2 -24 -5 3
-15 -17 -22 -44 -7 -27 -18 -46 -23 -43 -6 3 -7 1 -3 -5 4 -7 0 -29 -9 -49
-28 -64 -32 -76 -46 -135 -7 -32 -16 -58 -21 -58 -4 0 -8 -12 -8 -26 0 -14 -6
-32 -14 -40 -8 -7 -12 -23 -9 -34 3 -12 0 -20 -6 -20 -7 0 -9 -4 -6 -10 3 -5
1 -10 -4 -10 -6 0 -11 -12 -11 -27 0 -14 -8 -35 -17 -45 -9 -10 -18 -26 -19
-36 -2 -9 -12 -44 -24 -76 -12 -33 -22 -74 -23 -91 -1 -18 -10 -40 -20 -49 -9
-10 -17 -28 -17 -42 0 -13 -4 -24 -10 -24 -5 0 -9 -3 -8 -7 0 -5 -1 -15 -5
-23 -20 -54 -36 -114 -31 -121 3 -5 0 -9 -5 -9 -6 0 -11 -7 -11 -16 0 -8 -4
-13 -9 -10 -5 4 -7 -3 -4 -13 3 -11 -2 -30 -11 -43 -9 -12 -16 -32 -16 -43 0
-12 -7 -30 -15 -41 -8 -10 -15 -31 -15 -46 0 -15 -6 -33 -12 -40 -7 -7 -13
-17 -13 -23 -1 -17 -36 -129 -51 -162 -8 -17 -14 -38 -14 -47 0 -9 -4 -16 -10
-16 -5 0 -10 -8 -10 -17 0 -24 -73 -237 -82 -241 -5 -2 -8 -12 -8 -22 0 -10
-9 -39 -20 -65 -11 -25 -19 -49 -18 -53 2 -14 -24 -72 -33 -72 -5 0 -9 -8 -9
-19 0 -28 -32 -121 -42 -121 -13 0 3 114 18 126 8 6 14 23 14 38 0 15 6 39 14
54 15 30 19 102 5 102 -4 0 -13 -8 -18 -17 -8 -14 -10 -9 -11 25 0 31 4 42 16
42 21 0 7 19 -23 31 -14 5 -27 18 -30 29 -3 10 -12 21 -22 24 -9 3 2 4 24 2
22 -2 32 -1 23 1 -25 6 -23 33 2 33 35 0 22 27 -16 35 -20 3 -39 4 -42 1 -3
-3 4 -6 16 -6 13 0 22 -6 22 -16 0 -10 -7 -14 -24 -12 -13 1 -31 -4 -40 -11
-27 -22 -45 2 -21 29 18 20 18 20 -8 20 -15 0 -27 -4 -27 -10 0 -21 -31 -9
-40 15 -14 37 -23 31 -16 -10 5 -27 4 -35 -7 -35 -8 0 -18 -7 -21 -16 -9 -23
-8 -24 12 -18 15 5 15 4 1 -5 -9 -6 -22 -24 -29 -41 -7 -16 -16 -30 -20 -30
-4 0 -15 18 -25 40 -17 37 -21 40 -59 40 -23 0 -36 -4 -31 -8 6 -4 8 -38 5
-87 l-5 -80 -122 3 c-78 1 -123 -1 -123 -8 0 -5 8 -10 18 -10 16 -1 16 -1 0
-11 -21 -12 -24 -35 -5 -42 6 -3 2 -6 -10 -6 -18 -1 -22 -8 -26 -44 l-4 -42
-1 43 c-2 35 -5 42 -22 42 -17 0 -20 -7 -20 -40 0 -29 -4 -40 -15 -40 -8 0
-15 -7 -15 -15 0 -19 -14 -19 -30 0 -17 20 -30 3 -30 -37 0 -26 -3 -28 -40
-28 -33 0 -40 -3 -40 -20 0 -17 -7 -20 -39 -20 -33 0 -40 4 -44 22 -2 13 -5 5
-6 -18 0 -22 6 -49 14 -60 17 -22 19 -44 5 -44 -6 0 -13 14 -16 30 -7 33 -34
41 -34 10 0 -28 -28 -25 -32 2 -2 19 -10 24 -45 26 -24 2 -43 -1 -43 -5 0 -5
16 -7 35 -5 31 4 36 1 45 -24 6 -16 9 -36 7 -46 -3 -10 -1 -18 4 -18 5 0 9 -9
9 -20 0 -11 -4 -20 -10 -20 -5 0 -10 7 -10 15 0 11 -11 15 -40 15 -22 0 -40
-4 -40 -10 0 -5 -18 -10 -40 -10 -33 0 -40 3 -40 20 0 18 7 20 58 22 31 0 67
0 80 -1 27 -2 27 6 2 39 l-20 25 -22 -27 c-17 -20 -34 -28 -63 -30 -33 -2 -41
-7 -43 -26 -4 -27 -22 -29 -22 -2 0 11 -4 20 -10 20 -5 0 -10 -9 -10 -20 0
-11 -4 -20 -10 -20 -5 0 -10 10 -10 22 0 12 -3 19 -6 16 -8 -9 7 -78 17 -78 5
0 9 9 9 20 0 11 5 20 10 20 6 0 10 -9 10 -20 0 -27 18 -25 23 2 4 20 4 19 6
-4 1 -26 -2 -28 -39 -28 -39 0 -40 -1 -40 -35 0 -34 -1 -35 -40 -35 -33 0 -40
-3 -40 -20 0 -17 -7 -20 -40 -20 -33 0 -40 -3 -40 -19 0 -16 8 -21 43 -24 l42
-4 -42 -1 c-31 -1 -43 -6 -43 -17 0 -11 -11 -15 -38 -15 -24 0 -46 -7 -60 -20
-12 -11 -30 -20 -42 -20 -16 0 -20 -6 -20 -35 0 -34 -1 -35 -40 -35 -36 0 -40
-2 -40 -25 0 -22 -4 -25 -40 -25 -39 0 -40 -1 -40 -34 0 -19 4 -37 9 -40 13
-9 1 -46 -15 -46 -8 0 -14 -7 -14 -15 0 -8 -4 -15 -10 -15 -18 0 -11 28 11 43
19 14 20 16 3 25 -15 9 -16 13 -5 26 12 14 11 16 -5 16 -19 -1 -54 -22 -54
-34 0 -3 7 -6 16 -6 26 0 10 -24 -24 -36 -18 -5 -30 -13 -27 -16 14 -14 -30
-32 -76 -29 -39 2 -49 -1 -49 -13 0 -12 -10 -16 -40 -16 l-40 0 0 -50 0 -50
-40 0 c-22 0 -40 -4 -40 -10 0 -5 -9 -10 -20 -10 -11 0 -20 -4 -20 -10 0 -5
-9 -10 -21 -10 -17 0 -20 -4 -16 -23 6 -21 4 -22 -38 -19 l-45 4 0 -35 c0 -20
5 -37 11 -39 7 -2 5 -9 -5 -17 -14 -12 -16 -12 -10 3 4 12 0 16 -16 16 -11 0
-19 -4 -16 -9 3 -4 -3 -16 -14 -26 -11 -10 -20 -14 -21 -9 0 5 -4 0 -8 -10 -6
-17 -9 -15 -20 12 -17 40 -25 40 -41 2 -11 -27 -17 -30 -56 -30 -43 0 -44 -1
-44 -33 0 -38 -15 -57 -44 -56 -18 1 -17 2 4 8 29 8 35 44 7 49 -10 2 -17 0
-16 -5 4 -21 -2 -33 -16 -33 -18 0 -21 46 -2 53 10 4 10 7 0 18 -11 11 -13 10
-13 -4 0 -10 -8 -17 -20 -17 -16 0 -20 -7 -20 -30 0 -23 -4 -30 -20 -30 -16 0
-20 -7 -20 -30 0 -16 -4 -30 -10 -30 -5 0 -10 -7 -10 -15 0 -15 -45 -22 -52
-7 -2 4 -41 4 -88 1 -47 -3 -66 -6 -42 -7 35 -2 42 -5 42 -22 0 -17 -7 -20
-40 -20 -33 0 -40 -3 -40 -20 0 -18 -11 -25 -34 -21 -19 4 -46 -11 -46 -25 0
-9 5 -12 12 -8 6 4 8 3 4 -4 -3 -5 0 -13 6 -15 8 -3 6 -6 -4 -6 -10 -1 -18 4
-18 9 0 6 -18 10 -39 10 -33 0 -40 4 -44 23 -2 12 -5 3 -6 -20 -1 -36 -4 -43
-21 -43 -17 0 -20 7 -22 43 l-1 42 -4 -38 c-3 -28 -15 -47 -49 -80 -41 -38
-49 -42 -90 -39 -43 4 -44 5 -46 41 0 20 -4 1 -8 -42 -4 -52 -11 -82 -21 -88
-11 -7 -9 -9 9 -9 13 0 22 -6 22 -15 0 -19 -9 -19 -31 1 -9 8 -42 18 -73 21
-48 5 -56 3 -56 -11 0 -9 -8 -16 -20 -16 -11 0 -20 7 -20 15 0 8 -9 15 -20 15
-13 0 -20 -7 -20 -20 0 -17 -7 -20 -40 -20 -33 0 -40 -4 -42 -20 -1 -11 -2
-32 -4 -47 -1 -16 -7 -39 -12 -53 -10 -24 -11 -24 -11 -3 -1 12 -9 27 -18 32
-10 6 -12 11 -5 11 6 0 12 5 12 11 0 6 -6 9 -12 7 -7 -3 -16 -22 -19 -44 -6
-37 -6 -38 -8 -6 -1 31 -3 32 -41 32 l-40 0 0 -60 0 -60 -32 -2 c-18 0 -41 0
-51 0 -10 1 -15 -3 -12 -8 3 -6 1 -10 -4 -10 -16 0 -13 20 4 26 23 9 19 44 -5
44 -11 0 -20 -4 -20 -10 0 -5 -26 -7 -65 -3 -68 6 -79 -1 -49 -31 8 -9 11 -16
5 -16 -17 0 -13 -28 7 -39 16 -10 16 -10 0 -11 -10 0 -18 5 -18 10 0 6 -18 10
-40 10 -33 0 -40 -3 -40 -20 0 -18 -6 -19 -92 -16 -51 1 -106 -1 -123 -5 -18
-5 1 -6 48 -3 l78 6 -7 -29 c-4 -15 -11 -34 -17 -41 -7 -8 -5 -12 7 -12 17 0
22 -15 7 -25 -14 -8 -32 30 -20 42 6 6 4 16 -6 29 -8 10 -14 15 -13 9 1 -5 -1
-19 -5 -30 -6 -17 -14 -20 -50 -17 l-42 4 1 -44 c1 -29 0 -33 -3 -10 -4 30 -7
32 -44 32 -28 0 -39 -4 -39 -15 0 -11 -11 -15 -40 -15 -31 0 -40 4 -40 17 0
15 -1 15 -18 0 -17 -15 -20 -15 -37 1 -19 17 -19 16 -2 -4 16 -20 16 -22 -3
-39 -29 -26 -28 -88 3 -103 20 -10 20 -11 2 -9 -11 1 -22 5 -25 9 -3 4 -46 9
-95 13 -65 5 -86 4 -75 -4 12 -8 5 -11 -27 -11 l-43 0 0 -40 0 -40 -40 0 c-22
0 -40 5 -40 10 0 6 -19 10 -42 10 -27 0 -38 -3 -30 -9 7 -4 24 -6 36 -4 19 4
24 0 28 -20 3 -14 1 -32 -4 -41 -6 -11 -5 -16 3 -16 35 0 -15 -18 -54 -19 -10
-1 -15 -6 -12 -11 4 -6 11 -8 16 -5 5 4 9 2 9 -3 0 -6 -7 -12 -15 -16 -8 -3
-15 -1 -15 5 0 6 -4 8 -9 5 -4 -3 -16 3 -26 14 -14 16 -15 20 -4 24 40 13 40
15 -1 13 l-45 -2 -1 -46 c-2 -85 -34 -98 -34 -14 0 44 -3 55 -16 55 -13 0 -15
-11 -13 -62 1 -35 -1 -71 -6 -81 -7 -16 -12 -14 -46 19 -22 21 -39 32 -39 26
0 -22 -50 -64 -70 -59 -13 3 -17 0 -13 -9 3 -9 20 -14 44 -14 57 0 54 -28 -3
-32 -39 -3 -44 -6 -54 -38 -6 -19 -18 -36 -27 -38 -8 -2 -17 -11 -20 -21 -4
-18 -58 -51 -84 -51 -7 0 -13 -7 -13 -15 0 -8 5 -15 11 -15 5 0 7 -5 4 -10
-10 -17 -25 -1 -26 28 0 27 0 27 -11 4 -9 -17 -8 -26 6 -41 17 -18 17 -20 -2
-30 -16 -9 -21 -7 -25 10 -3 12 -10 18 -17 14 -8 -5 -8 -10 0 -20 14 -16 5
-35 -16 -35 -8 0 -14 -10 -14 -22 0 -39 -11 -67 -29 -71 -9 -3 -4 -5 12 -6 15
0 27 -6 27 -12 0 -7 -15 -10 -40 -7 -22 2 -40 -1 -40 -6 0 -5 -7 -18 -17 -28
-15 -17 -15 -18 3 -18 17 -1 16 -2 -4 -14 -21 -11 -22 -14 -8 -25 17 -15 22
-36 6 -26 -5 3 -19 1 -30 -5 -15 -8 -20 -22 -21 -53 -1 -39 -2 -40 -8 -12 l-7
30 -7 -35 c-4 -19 -8 -43 -8 -52 0 -19 -19 -26 -19 -8 0 6 -5 10 -11 10 -6 0
-9 -6 -6 -14 3 -7 -4 -25 -16 -40 -24 -30 -31 -58 -15 -67 7 -4 7 -9 -1 -13
-6 -4 -11 -2 -11 3 0 6 -5 11 -11 11 -5 0 -7 -5 -4 -10 8 -12 -16 -80 -28 -80
-16 0 -37 -28 -32 -42 4 -9 -5 -19 -21 -26 -23 -11 -25 -17 -21 -52 3 -31 1
-41 -12 -45 -15 -5 -22 -26 -25 -82 0 -11 -4 -19 -8 -17 -13 8 -19 -16 -8 -36
9 -17 8 -20 -7 -20 -21 0 -49 -56 -58 -117 -4 -23 -12 -44 -19 -46 -8 -3 -16
-18 -19 -34 -5 -28 -39 -130 -63 -188 -6 -16 -29 -79 -49 -140 -21 -60 -41
-119 -46 -130 -13 -34 -22 -60 -24 -70 -9 -37 -39 -124 -50 -145 -7 -14 -25
-59 -39 -100 -14 -41 -45 -131 -70 -200 -24 -69 -49 -141 -56 -160 -6 -19 -17
-46 -25 -60 -7 -14 -18 -45 -24 -70 -11 -41 -37 -113 -61 -165 -16 -34 -47
-138 -60 -197 -7 -32 -16 -55 -20 -53 -11 7 -20 -21 -20 -57 0 -46 -59 -210
-80 -223 -6 -3 -10 -16 -10 -28 0 -17 -2 -19 -9 -8 -8 12 -13 12 -24 3 -11
-10 -21 -10 -43 -1 -16 7 -40 12 -54 13 -18 1 -24 6 -22 19 2 13 -4 17 -26 17
-18 0 -38 10 -56 29 -23 24 -29 40 -33 98 -6 88 -6 84 2 111 5 14 3 22 -4 22
-6 0 -11 -8 -11 -18 0 -10 -6 -26 -13 -37 -19 -28 -64 -172 -72 -227 -4 -30
-17 -60 -36 -84 l-29 -37 0 92 c0 66 -3 91 -12 91 -41 -2 -209 -28 -215 -33
-3 -4 3 -7 15 -7 26 0 25 6 26 -150 1 -69 5 -136 10 -149 4 -13 4 -21 -1 -18
-4 3 -8 -18 -7 -46 1 -29 -2 -60 -7 -69 -7 -13 -5 -25 7 -43 16 -25 19 -25
108 -21 81 5 86 4 46 -6 -25 -6 -133 -11 -240 -11 -191 -1 -202 0 -540 56
-190 31 -469 79 -620 107 -151 27 -441 79 -645 114 -203 36 -406 72 -450 80
-44 8 -213 37 -375 66 -162 28 -576 103 -920 165 -344 62 -913 166 -1265 230
-352 64 -757 137 -900 163 l-259 48 -8 34 c-12 56 -24 377 -15 410 4 16 16 34
26 39 21 12 172 58 480 147 124 36 262 76 305 90 43 13 80 23 82 21 2 -2 -49
-21 -113 -42 -65 -21 -124 -45 -131 -54 -9 -10 -11 -11 -6 -2 5 11 3 13 -10 8
-9 -4 -41 -14 -71 -23 -30 -8 -55 -18 -55 -20 0 -3 8 -3 18 0 10 4 26 0 37 -7
16 -13 15 -14 -13 -9 -21 3 -37 -2 -52 -15 -20 -20 -20 -20 45 -15 41 2 65 0
65 -6 0 -6 9 -14 20 -17 25 -8 26 -22 2 -28 -14 -4 79 -12 100 -8 4 0 12 -7
17 -17 10 -18 46 -22 69 -8 7 4 24 0 39 -9 21 -14 27 -15 34 -4 6 11 9 10 14
-3 4 -10 24 -19 48 -23 23 -4 48 -12 54 -17 7 -6 20 -8 28 -4 8 3 15 0 15 -7
0 -9 3 -8 9 1 12 19 13 19 46 -4 17 -11 41 -19 55 -18 14 1 29 -1 34 -4 5 -3
21 -6 35 -7 59 -5 150 -28 145 -36 -3 -5 1 -11 8 -13 14 -5 189 -17 271 -20
26 0 47 -4 47 -8 0 -5 12 -8 26 -8 15 0 33 -8 41 -17 8 -10 11 -12 8 -5 -6 11
7 12 66 6 41 -3 85 -6 99 -6 14 0 30 -4 36 -9 13 -11 83 -20 197 -26 48 -2 85
-8 82 -12 -2 -5 28 -9 68 -10 40 -1 100 -6 132 -11 33 -5 89 -10 126 -10 36 0
69 -4 75 -9 13 -12 114 -22 114 -11 0 6 7 10 15 10 8 0 12 -6 10 -13 -4 -9 8
-12 44 -11 27 1 55 5 62 10 7 4 15 2 17 -4 5 -17 22 -15 22 3 0 8 5 15 11 15
5 0 8 -4 4 -9 -3 -5 -1 -12 5 -16 5 -3 10 0 11 7 1 7 5 2 9 -12 8 -24 8 -24 9
-2 1 12 4 22 9 23 37 4 72 13 97 24 31 14 101 37 122 41 7 1 34 9 60 17 26 9
129 41 228 72 99 31 198 62 220 70 120 41 397 126 401 123 2 -3 -173 -62 -389
-132 -215 -71 -462 -151 -547 -179 -85 -29 -163 -51 -172 -51 -10 1 -18 -2
-18 -6 0 -14 468 -102 639 -119 68 -7 116 -8 144 -1 53 13 934 309 1127 380
80 29 251 87 380 130 129 43 244 81 255 85 13 4 12 1 -5 -9 -14 -8 -122 -47
-240 -87 -118 -39 -343 -118 -500 -174 -157 -56 -422 -148 -590 -203 -280 -92
-434 -150 -369 -137 14 2 51 -4 83 -15 61 -22 413 -79 537 -87 78 -6 154 11
207 44 12 7 89 36 170 63 81 27 224 77 317 111 268 96 532 188 630 219 105 34
505 172 648 224 108 39 121 42 115 24 -2 -6 -31 -17 -64 -24 -32 -6 -95 -26
-139 -44 -83 -34 -203 -75 -690 -240 -159 -54 -326 -112 -370 -130 -44 -18
-125 -47 -180 -65 -332 -109 -495 -173 -495 -194 0 -14 296 -72 514 -100 148
-20 176 -17 262 19 113 49 455 175 529 195 l80 22 47 -23 c66 -33 77 -59 16
-35 -82 31 -97 32 -158 17 -33 -9 -124 -41 -202 -72 -79 -31 -161 -62 -183
-70 -77 -28 -165 -67 -165 -73 0 -25 567 -127 638 -115 40 6 192 53 277 85
l54 20 30 97 c16 53 40 133 51 177 12 44 35 121 50 170 16 50 72 241 124 425
53 184 114 396 136 470 21 74 53 189 70 255 53 204 56 214 115 423 31 112 55
205 53 208 -3 2 -22 -51 -42 -118 -36 -115 -39 -121 -51 -98 -7 14 -15 24 -17
22 -9 -9 -62 22 -131 77 -42 34 -79 61 -82 61 -2 0 -20 15 -38 32 -59 57 -137
116 -214 166 -41 26 -104 66 -139 90 -36 24 -63 37 -59 30 4 -7 -1 -4 -10 7
-9 11 -40 68 -69 126 -29 58 -61 117 -70 130 -22 29 -21 26 31 -81 77 -159 95
-205 175 -425 125 -345 137 -383 174 -509 34 -122 46 -191 17 -103 -9 26 -22
47 -29 47 -8 0 -14 7 -14 16 0 14 -2 14 -15 0 -8 -8 -15 -21 -15 -30 0 -8 -10
-22 -22 -31 -13 -8 -23 -21 -23 -28 -1 -6 -6 -11 -13 -9 -7 1 -26 -5 -43 -14
-17 -8 -38 -13 -46 -10 -9 4 -22 1 -29 -5 -26 -21 -94 38 -124 109 -12 26 -28
58 -36 72 -8 14 -22 41 -30 60 -24 54 -68 144 -75 150 -3 3 -18 35 -34 73 -15
37 -34 72 -42 78 -7 6 -13 20 -13 30 0 10 -4 21 -10 24 -5 3 -10 13 -10 22 0
9 -9 34 -19 57 -18 39 -33 75 -35 86 -1 3 -12 20 -26 37 -18 25 -31 33 -54 33
-17 0 -37 -4 -44 -9 -24 -15 -72 -124 -72 -163 0 -10 -5 -17 -11 -15 -7 1 -13
-18 -14 -50 -2 -29 -7 -58 -11 -65 -5 -7 -7 -23 -6 -35 2 -13 -4 -26 -17 -32
-12 -7 -18 -17 -15 -26 4 -8 -1 -18 -10 -21 -9 -3 -16 -12 -16 -18 0 -13 -41
-36 -65 -36 -8 0 -12 -8 -9 -22 2 -13 2 -17 -2 -10 -3 6 -12 12 -19 12 -7 0
-16 -6 -19 -12 -5 -11 -7 -11 -12 0 -3 6 -12 12 -19 12 -7 0 -15 6 -18 13 -3
8 -7 7 -12 -5 -5 -13 -12 -15 -36 -6 -16 5 -29 16 -29 24 0 8 -4 14 -10 14 -5
0 -10 7 -10 15 0 19 -47 94 -72 117 -11 9 -18 18 -17 20 2 2 -5 15 -14 29 -24
36 -94 46 -140 21 -18 -9 -34 -21 -36 -27 -2 -5 -7 -20 -12 -33 -5 -13 -9 -38
-9 -56 0 -17 -5 -37 -10 -42 -6 -6 -12 -25 -14 -42 -3 -17 -9 -46 -14 -64 -6
-18 -14 -46 -19 -63 -5 -16 -15 -29 -21 -28 -7 2 -12 -2 -12 -7 0 -6 6 -10 13
-10 6 0 1 -6 -12 -13 -13 -6 -29 -21 -35 -32 -13 -24 -27 -35 -38 -29 -4 2
-12 -5 -18 -16 -13 -25 -29 -26 -45 -3 -11 15 -16 16 -38 4 -32 -17 -57 -8
-57 19 0 11 -6 20 -12 20 -13 0 -58 62 -58 78 0 4 -15 23 -34 41 -31 31 -37
33 -65 23 -53 -18 -86 -62 -114 -148 -9 -27 -13 -61 -10 -74 4 -15 2 -21 -4
-17 -7 4 -11 -9 -11 -36 -2 -111 -3 -134 -11 -167 -5 -19 -12 -48 -15 -63 -4
-16 -11 -25 -17 -21 -6 3 -17 -2 -24 -12 -10 -13 -14 -15 -15 -5 0 9 -4 10
-12 3 -22 -17 -91 -12 -116 8 -13 11 -21 24 -17 30 3 5 0 10 -7 10 -19 0 -39
15 -42 31 -1 8 -8 33 -16 56 -11 35 -11 45 0 58 11 14 11 16 -1 13 -11 -2 -14
13 -15 78 -1 144 20 269 65 378 22 55 38 103 35 107 -4 8 67 150 88 176 6 7 7
13 2 13 -5 0 -4 4 1 8 6 4 26 37 45 74 19 37 39 68 43 68 5 0 5 4 2 10 -3 5 3
17 15 27 11 10 20 21 20 25 0 4 13 30 30 58 16 27 27 50 23 50 -3 0 1 8 9 18
8 9 18 25 21 35 4 11 12 15 18 11 7 -4 9 -3 5 4 -9 15 155 212 255 305 124
116 128 120 207 186 41 34 80 61 87 61 7 0 15 4 17 9 6 16 161 103 238 133 41
16 86 33 99 39 12 5 50 12 82 16 54 5 65 3 132 -30 39 -20 114 -68 166 -108
72 -54 88 -64 70 -39 -13 17 -31 44 -39 60 -8 15 -44 53 -80 84 -36 31 -72 62
-81 69 -27 24 -141 40 -221 32 -175 -17 -302 -92 -528 -309 -232 -224 -419
-452 -633 -772 -59 -89 -115 -168 -124 -175 -15 -12 -16 -12 -8 1 5 8 18 27
29 42 11 15 17 30 14 34 -6 6 -69 -80 -122 -165 -15 -25 -44 -66 -65 -90 -20
-25 -39 -49 -43 -55 -4 -6 -10 -8 -13 -4 -3 3 7 21 22 39 17 21 20 28 8 19
-40 -30 -54 -54 -42 -69 10 -12 9 -13 -2 -6 -24 14 -84 12 -116 -5 -17 -8 -75
-45 -130 -82 -67 -45 -114 -69 -142 -74 -39 -6 -49 -3 -110 38 -96 64 -98 65
-89 42 5 -12 -5 -7 -30 16 -32 31 -35 32 -25 10 12 -24 11 -24 -4 -5 -30 37
-15 64 78 144 139 120 256 277 505 676 299 482 494 716 732 884 58 41 110 79
115 83 18 16 -29 -5 -59 -26 -21 -15 -30 -18 -33 -8 -7 18 -27 15 -48 -8 -9
-10 -20 -19 -24 -18 -14 3 -61 -26 -61 -39 0 -7 -10 -18 -22 -22 -13 -5 -35
-21 -49 -35 -15 -13 -30 -22 -35 -18 -4 4 -4 2 0 -5 3 -7 -15 -34 -44 -65 -27
-29 -50 -57 -50 -62 0 -5 15 6 33 25 49 50 115 109 123 109 4 0 -22 -30 -59
-67 -36 -38 -91 -98 -123 -135 -52 -61 -60 -67 -88 -62 -17 3 -36 10 -43 16
-9 7 -13 7 -13 0 0 -6 9 -16 20 -22 11 -6 20 -17 20 -24 0 -19 -38 -9 -70 18
-15 13 -12 7 8 -15 17 -19 32 -38 32 -42 0 -11 -38 -8 -45 3 -3 6 -12 10 -18
10 -7 0 -1 -9 12 -19 45 -35 1 -56 -47 -23 -37 26 -61 37 -37 17 52 -42 66
-57 62 -68 -6 -19 -36 -9 -104 34 -35 22 -63 35 -63 30 0 -6 10 -16 23 -22 34
-18 97 -85 97 -103 0 -9 -2 -16 -5 -16 -3 0 -38 24 -78 54 -70 52 -172 104
-183 94 -3 -3 19 -17 48 -32 54 -27 177 -115 178 -128 0 -4 -11 -3 -25 2 -16
6 -25 6 -25 0 0 -6 5 -10 10 -10 6 0 10 -5 10 -11 0 -8 -5 -8 -15 1 -8 7 -15
19 -15 26 0 8 -5 14 -11 14 -5 0 -7 -6 -3 -12 5 -7 -19 10 -52 38 -32 28 -96
79 -141 113 -46 35 -83 66 -83 70 0 10 -168 121 -182 121 -5 0 -29 11 -54 25
-25 14 -49 23 -52 21 -4 -2 -19 4 -32 15 -25 18 -24 18 35 2 33 -9 67 -22 76
-30 8 -7 21 -13 28 -13 19 0 91 -39 91 -50 0 -6 7 -10 15 -10 24 0 115 -64
110 -77 -4 -12 46 -46 70 -49 10 -1 56 -19 79 -30 31 -16 -46 40 -86 63 -26
14 -50 34 -53 43 -9 30 -149 116 -250 155 -38 15 -83 33 -100 40 -16 7 -48 18
-70 24 -46 12 -79 31 -56 31 30 0 158 -35 181 -50 24 -15 76 -40 85 -40 39 0
-117 86 -200 111 -52 15 -68 23 -72 36 -9 27 202 -37 273 -82 12 -8 24 -11 28
-8 8 9 -112 68 -203 100 -68 25 -72 28 -50 37 13 6 27 15 31 21 5 6 8 6 8 0 0
-13 50 -36 62 -29 5 3 -9 15 -31 26 -23 11 -41 24 -41 28 0 13 33 21 44 10 5
-5 17 -10 25 -10 10 1 4 7 -11 16 -33 17 -36 34 -8 34 22 0 27 16 8 23 -8 2
-2 10 14 17 15 7 25 17 22 21 -3 5 6 13 20 19 14 5 26 13 26 18 0 5 9 13 19
18 11 5 48 34 83 65 140 125 169 149 192 155 14 3 27 12 30 20 3 8 11 14 18
14 7 0 29 9 49 19 51 28 142 43 177 30 15 -6 29 -11 32 -11 3 0 25 -15 50 -33
99 -71 383 -230 515 -287 121 -52 175 -80 175 -90 0 -12 44 -6 120 17 113 33
179 31 358 -13 94 -23 194 -55 237 -75 200 -95 346 -237 430 -419 25 -54 47
-85 82 -114 180 -151 705 -558 838 -649 122 -84 260 -187 272 -203 7 -9 15
-14 17 -11 2 2 27 92 56 199 95 357 121 453 175 645 29 105 66 235 80 290 15
55 59 210 97 345 39 135 87 309 109 387 21 78 56 204 78 280 73 253 152 555
146 561 -3 3 -5 0 -5 -7 0 -6 -25 -36 -55 -66 -75 -75 -116 -142 -222 -357
-22 -46 -32 -56 -46 -52 -15 5 -18 2 -12 -14 5 -17 -1 -24 -27 -38 -18 -9 -30
-13 -25 -9 4 5 0 19 -9 33 -13 20 -14 34 -4 90 6 37 20 93 30 125 11 31 20 64
20 71 0 21 -20 30 -33 17 -18 -18 -24 -13 -24 19 0 17 4 30 9 30 4 0 8 6 8 13
0 6 11 26 25 42 115 135 177 199 243 250 65 49 142 83 142 63 0 -9 3 -9 12 0
18 18 31 15 24 -5 -6 -16 -5 -16 8 0 15 20 31 64 70 198 l25 87 -24 97 c-27
110 -55 162 -118 228 -47 47 -140 107 -169 107 -9 0 -20 5 -24 11 -4 7 0 9 12
6 61 -19 74 -19 74 -3 0 12 -10 16 -36 16 -19 0 -42 7 -50 15 -12 11 -41 15
-124 15 -102 0 -111 2 -136 25 -15 14 -33 25 -40 25 -16 0 -54 35 -54 50 0 6
-7 10 -15 10 -13 0 -15 21 -15 125 0 102 -3 127 -15 131 -8 4 -15 16 -15 29 0
13 -7 25 -15 29 -8 3 -15 14 -15 24 0 10 -13 29 -30 42 -16 14 -29 29 -30 33
0 13 -117 127 -129 127 -6 0 -11 7 -11 15 0 10 -10 15 -30 15 -16 0 -30 5 -30
11 0 7 -11 22 -25 35 -14 13 -25 28 -25 34 0 5 -4 10 -9 10 -6 0 -22 11 -37
25 -15 14 -38 28 -51 31 -26 7 -32 24 -8 24 8 0 15 7 15 15 0 9 9 15 25 15 14
0 28 7 31 15 4 8 12 15 20 15 8 0 14 5 14 10 0 6 11 21 25 34 14 13 25 28 25
35 0 6 7 11 15 11 8 0 15 7 15 15 0 8 5 15 11 15 7 0 22 11 35 25 13 14 28 25
34 25 5 0 10 6 10 14 0 8 7 16 15 20 8 3 15 15 15 26 0 12 11 31 25 44 14 13
25 32 25 42 1 11 14 30 30 44 17 14 30 34 30 47 0 14 6 23 15 23 10 0 15 10
15 30 0 20 5 30 15 30 10 0 15 10 15 29 0 16 6 31 15 35 9 3 15 18 15 36 0 17
7 38 15 46 8 9 15 24 15 35 0 10 5 19 10 19 6 0 10 13 10 29 0 16 6 31 15 35
9 3 15 19 15 41 0 24 4 35 15 35 11 0 15 12 15 45 0 25 4 45 10 45 5 0 30 20
56 45 36 36 42 45 26 45 -22 0 -109 -81 -122 -114 -9 -21 -9 -21 -9 0 -1 12
27 51 67 95 184 202 302 392 372 598 57 170 81 305 105 585 9 104 20 199 25
211 15 40 267 386 292 401 6 4 2 -9 -11 -29 -12 -20 -20 -45 -18 -54 4 -17 5
-17 6 0 0 9 8 17 16 17 8 0 15 7 15 15 0 8 7 15 15 15 9 0 15 9 15 25 0 16 6
25 15 25 8 0 15 5 15 10 0 6 11 21 25 34 14 13 25 28 25 34 0 5 7 12 15 16 8
3 15 12 15 21 0 8 20 35 45 58 26 26 45 53 45 65 0 13 6 22 15 22 8 0 15 5 15
10 0 6 11 21 25 34 14 13 25 28 25 35 0 6 7 11 15 11 8 0 15 6 15 14 0 8 7 16
15 20 8 3 15 15 15 26 0 11 7 20 15 20 8 0 15 7 15 15 0 8 7 15 15 15 10 0 15
10 15 30 0 17 5 30 11 30 6 0 24 13 40 29 16 16 29 34 29 40 0 6 7 11 15 11 8
0 15 7 15 15 0 8 7 15 15 15 10 0 15 10 15 30 0 20 5 30 15 30 8 0 15 7 15 15
0 8 5 15 11 15 16 0 99 88 99 105 0 8 4 15 10 15 5 0 12 11 16 25 3 14 12 25
20 25 8 0 14 7 14 15 0 8 7 15 15 15 8 0 15 7 15 15 0 8 6 15 14 15 7 0 16 8
20 18 8 24 27 52 54 78 12 11 22 26 22 33 0 6 7 11 15 11 8 0 15 6 15 14 0 8
7 16 15 20 8 3 15 15 15 26 0 11 7 20 15 20 8 0 15 7 15 15 0 8 7 15 15 15 8
0 15 5 15 10 0 6 11 21 24 33 14 13 28 35 31 50 4 15 11 27 16 27 5 0 9 7 9
15 0 8 7 15 15 15 9 0 15 9 15 25 0 16 6 25 15 25 8 0 15 7 15 15 0 8 7 15 15
15 8 0 15 7 15 15 0 8 7 15 15 15 8 0 15 7 15 15 0 8 7 15 15 15 8 0 15 9 15
20 0 12 11 31 25 44 14 13 25 28 25 35 0 6 7 11 15 11 8 0 15 9 15 19 0 10 7
21 15 25 8 3 15 15 15 26 0 11 7 20 15 20 8 0 15 7 15 15 0 8 7 15 15 15 8 0
15 9 15 20 0 12 11 31 23 43 13 12 27 34 31 50 3 15 11 27 16 27 6 0 10 7 10
15 0 8 7 15 15 15 9 0 15 9 15 23 1 12 14 33 30 47 17 14 30 34 30 47 0 14 6
23 15 23 10 0 15 10 15 30 0 20 5 30 15 30 8 0 15 7 15 15 0 8 4 15 10 15 5 0
12 11 16 25 3 14 10 25 15 25 5 0 9 14 9 30 0 20 5 30 15 30 8 0 15 7 15 16 0
8 7 22 15 30 8 9 15 26 15 39 0 12 7 25 15 29 8 3 15 17 15 31 0 16 6 25 15
25 8 0 15 6 15 14 0 8 7 16 15 20 8 3 15 17 15 31 0 14 4 25 10 25 5 0 13 18
16 40 4 22 10 40 15 40 5 0 9 14 9 30 0 20 5 30 15 30 11 0 15 13 15 54 0 39
4 55 15 60 8 3 15 16 15 30 0 13 7 26 15 30 10 3 15 19 15 45 0 25 5 41 15 45
11 4 15 21 15 65 0 33 7 71 15 87 22 42 22 386 0 408 -9 9 -15 33 -15 63 0 28
-6 58 -15 69 -8 10 -15 31 -15 47 0 17 -5 27 -15 27 -9 0 -15 9 -15 25 0 14
-7 28 -15 31 -10 4 -15 20 -15 45 0 28 -4 39 -15 39 -10 0 -15 10 -15 30 0 17
-4 30 -8 30 -5 0 -17 18 -28 40 -10 22 -25 40 -31 40 -7 0 -13 7 -13 15 0 8
-7 15 -15 15 -8 0 -15 7 -15 15 0 8 -7 15 -15 15 -8 0 -15 7 -15 15 0 8 -7 15
-15 15 -8 0 -15 7 -15 15 0 8 -7 15 -15 15 -8 0 -15 5 -15 11 0 6 -13 24 -29
40 -16 16 -34 29 -40 29 -6 0 -11 7 -11 15 0 8 -7 15 -15 15 -8 0 -15 7 -15
15 0 8 -7 15 -15 15 -8 0 -15 7 -15 15 0 8 -6 15 -14 15 -8 0 -16 7 -20 15 -3
8 -14 15 -25 15 -11 0 -21 5 -23 12 -3 8 -6 9 -11 1 -4 -6 20 -35 54 -67 33
-31 58 -56 55 -56 -3 0 -41 28 -84 63 -194 154 -953 679 -1081 747 -51 27 -61
37 -61 59 0 69 -57 213 -122 310 -88 129 -359 406 -553 562 -192 155 -391 281
-615 391 -147 72 -173 89 -245 157 -251 238 -480 397 -835 578 -101 51 -193
101 -203 111 -10 9 -34 45 -54 80 -71 127 -154 197 -468 394 -184 115 -175
110 -175 105z m554 -5733 c20 -39 36 -76 36 -82 0 -8 29 -25 38 -22 11 4 182
-176 197 -207 9 -18 20 -33 24 -33 5 0 22 -26 37 -57 16 -32 41 -71 56 -88 16
-16 31 -39 34 -50 8 -24 140 -156 148 -148 3 4 6 1 6 -5 0 -7 7 -12 15 -12 7
0 18 -6 22 -13 8 -14 52 -39 138 -78 47 -22 194 -41 236 -31 20 5 42 49 32 65
-4 7 -6 20 -5 30 2 11 -3 17 -17 17 -12 0 -21 7 -21 15 0 12 16 15 83 16 l82
1 -80 12 c-183 29 -327 98 -440 211 -44 44 -90 100 -103 125 -12 25 -17 37
-10 26 97 -142 166 -204 293 -266 120 -57 240 -84 344 -76 111 8 117 14 85 78
-23 45 -47 173 -30 157 4 -4 9 -28 12 -55 6 -52 31 -105 52 -112 7 -2 12 5 12
18 0 12 4 19 8 16 5 -3 21 8 36 25 15 16 35 29 43 29 11 0 13 4 5 13 -5 6 -12
27 -14 45 -4 29 -2 33 14 29 10 -3 18 -3 18 0 0 2 -23 31 -51 63 -29 32 -61
73 -71 92 -12 19 -13 25 -4 13 75 -93 105 -125 133 -144 l32 -21 21 22 c11 12
37 54 57 94 43 83 55 91 22 15 -12 -29 -19 -54 -15 -58 3 -3 6 0 6 8 0 16 39
44 48 35 3 -3 0 -6 -6 -6 -7 0 -12 -7 -12 -15 0 -17 11 -19 26 -6 15 14 104
41 104 31 0 -5 10 -12 22 -16 24 -7 57 -42 58 -60 0 -7 14 -26 30 -44 17 -18
30 -36 30 -42 0 -5 5 -6 10 -3 6 3 10 0 10 -8 0 -22 50 -67 74 -67 27 0 46
-18 46 -43 0 -13 5 -17 19 -12 14 4 20 -1 25 -20 4 -14 11 -23 16 -20 6 4 13
-1 16 -9 4 -11 11 -13 21 -7 9 5 24 6 35 3 10 -2 28 4 40 14 12 11 18 13 14 7
-9 -16 20 -18 29 -3 3 6 17 10 29 10 13 0 29 6 35 14 6 8 32 17 56 21 25 3 45
9 45 13 0 12 52 13 66 1 8 -6 14 -8 14 -4 0 30 85 -118 95 -167 4 -17 15 -45
24 -62 14 -25 16 -39 8 -79 -8 -38 -7 -51 3 -57 10 -6 11 -12 3 -22 -6 -7 -14
-38 -17 -68 -5 -52 -4 -53 8 -25 31 70 57 135 85 215 28 80 44 103 20 29 -30
-94 -134 -367 -147 -384 -13 -19 -14 -19 -7 5 4 14 13 40 22 59 11 25 12 39 5
55 -10 21 -11 21 -11 1 -1 -12 -5 -25 -10 -30 -5 -6 -12 -37 -15 -70 -5 -66
-35 -160 -36 -115 0 29 -44 126 -67 152 -41 45 -96 20 -433 -202 -302 -198
-389 -240 -530 -255 -89 -9 -98 -12 -115 -44 -22 -44 -4 -95 47 -128 34 -23
51 -27 117 -28 58 0 86 5 119 21 28 15 38 17 30 7 -6 -8 -46 -32 -87 -52 -71
-36 -78 -37 -111 -25 -44 16 -50 16 -50 3 0 -5 6 -7 13 -4 6 4 1 -3 -13 -14
-14 -11 -33 -21 -42 -21 -10 0 -18 -4 -18 -9 0 -5 -20 -19 -45 -31 -25 -12
-53 -32 -62 -44 -10 -12 -26 -20 -35 -18 -10 2 -18 -1 -18 -6 0 -5 -14 -15
-30 -22 -17 -7 -40 -24 -50 -38 -11 -13 -20 -22 -20 -18 0 3 -9 -3 -20 -14
-11 -11 -31 -22 -46 -26 -19 -5 -24 -11 -21 -25 4 -14 0 -19 -16 -19 -22 0
-27 -4 -104 -81 -33 -32 -53 -61 -53 -75 0 -12 -6 -29 -13 -36 -25 -25 -46
-63 -56 -103 -5 -22 -17 -60 -26 -85 -20 -54 -22 -149 -3 -161 10 -7 10 -9 -2
-9 -10 0 -6 -9 13 -25 16 -14 33 -23 38 -20 5 4 9 -2 9 -12 0 -13 12 -23 35
-32 19 -7 57 -30 85 -52 27 -21 54 -39 60 -39 6 0 21 -6 33 -14 59 -38 246
-41 368 -6 90 26 229 93 260 126 12 13 28 24 35 24 17 0 160 142 160 160 0 7
65 102 81 118 7 7 13 19 13 27 0 15 29 73 47 92 6 7 23 37 37 67 14 30 31 58
36 61 6 3 10 15 10 26 0 11 5 17 10 14 6 -3 10 4 10 17 0 13 5 30 11 38 8 12
9 9 4 -10 -4 -16 2 -11 15 14 11 22 20 46 20 53 0 7 4 13 9 13 5 0 2 -21 -6
-47 -26 -83 -70 -282 -63 -290 3 -5 3 -55 -1 -113 -5 -58 -12 -164 -17 -236
-9 -119 -22 -190 -54 -279 -5 -16 -14 -48 -18 -70 -4 -22 -26 -73 -49 -114
-22 -41 -41 -77 -41 -80 0 -3 -10 -17 -23 -31 -12 -14 -27 -36 -34 -50 -16
-35 -49 -75 -118 -145 -83 -83 -134 -121 -213 -157 -37 -17 -74 -37 -82 -44
-9 -7 -45 -21 -80 -30 -36 -9 -75 -22 -87 -30 -12 -8 -31 -14 -43 -14 -11 0
-20 -4 -20 -10 0 -5 -9 -10 -20 -10 -26 0 -140 -50 -140 -62 0 -4 -7 -8 -15
-8 -8 0 -15 -4 -15 -10 0 -5 -19 -22 -42 -38 -24 -17 -54 -39 -67 -51 -13 -12
-27 -21 -31 -21 -4 0 -10 -9 -13 -20 -3 -13 -11 -18 -20 -14 -8 3 -18 0 -22
-5 -3 -6 -11 -8 -17 -5 -7 5 -9 1 -5 -8 7 -19 -27 -53 -42 -43 -6 3 -11 1 -11
-6 0 -19 -59 -67 -91 -74 -18 -4 -26 -11 -22 -18 4 -6 0 -8 -10 -4 -8 3 -21 0
-27 -8 -16 -20 -106 -51 -186 -65 -74 -13 -444 -7 -467 7 -7 4 -26 8 -44 10
-17 1 -62 11 -100 22 -37 11 -88 23 -113 27 -25 4 -49 10 -55 14 -5 4 -30 10
-55 14 -24 4 -51 13 -60 20 -24 20 -70 37 -70 26 0 -6 -5 -10 -11 -10 -5 0 -7
4 -4 10 3 5 -5 15 -19 22 -14 6 -26 15 -26 20 0 5 -9 6 -20 3 -14 -5 -20 -2
-20 9 0 11 -9 16 -30 16 -20 0 -30 5 -30 15 0 8 -9 15 -20 15 -11 0 -23 7 -26
15 -4 8 -11 15 -18 15 -6 0 -28 9 -49 20 -21 11 -42 18 -47 15 -12 -7 -110 17
-104 26 6 10 -28 20 -75 24 -20 1 -74 10 -121 19 -47 9 -96 19 -110 21 -14 2
-54 13 -90 23 -60 17 -81 24 -120 40 -8 3 -24 6 -35 6 -11 1 -38 12 -60 25
-22 14 -43 24 -47 23 -5 -1 -8 2 -8 7 0 5 -6 8 -12 8 -18 -2 -131 55 -144 72
-6 8 -18 11 -28 8 -10 -4 -23 1 -33 13 -10 11 -23 20 -31 20 -7 0 -15 7 -18
15 -4 8 -10 15 -15 15 -11 0 -142 100 -147 112 -2 4 -21 18 -43 30 -22 12 -38
27 -35 34 3 7 -6 15 -18 18 -13 3 -29 19 -36 36 -7 16 -16 28 -20 25 -4 -2
-28 21 -52 53 -25 31 -58 69 -73 85 -15 15 -25 27 -21 27 4 0 -3 10 -14 23
-12 12 -30 38 -40 57 -10 19 -28 45 -40 58 -11 12 -18 22 -14 22 4 0 0 8 -8
18 -22 25 -83 136 -80 145 1 4 -2 7 -8 7 -5 0 -17 25 -25 55 -9 30 -21 55 -27
55 -6 0 -8 9 -5 20 3 11 1 20 -5 20 -6 0 -8 7 -4 15 3 8 1 15 -3 15 -11 0 -30
76 -36 147 -3 29 -9 62 -13 75 -5 13 -3 66 4 123 21 167 25 185 43 186 10 0
11 2 4 6 -20 8 -15 31 8 38 12 4 18 10 13 14 -19 13 -13 29 8 23 14 -3 19 -1
14 6 -4 7 0 15 8 18 9 3 16 12 16 19 0 7 17 21 38 31 37 19 42 24 42 45 0 8 4
8 14 0 10 -9 16 -8 26 4 7 8 23 15 36 15 19 0 24 5 24 25 0 19 5 25 21 25 12
0 33 12 46 26 18 20 30 25 51 20 l27 -6 -29 16 c-22 12 -26 18 -15 25 9 5 17
3 22 -6 12 -22 30 -18 51 10 10 14 23 25 28 25 12 0 30 19 46 50 7 14 32 34
55 46 43 22 60 44 33 44 -9 0 -16 -4 -16 -10 0 -5 -4 -10 -10 -10 -22 0 -9 40
15 46 28 7 33 29 9 42 -15 8 -15 11 5 31 20 20 21 31 21 180 0 152 1 159 22
173 18 12 21 23 20 65 -1 37 3 53 14 57 8 3 12 10 9 16 -3 5 0 10 7 10 10 0
13 10 10 33 -2 23 4 40 21 60 13 15 29 27 36 27 6 0 16 9 23 20 7 11 16 20 21
20 4 0 20 12 35 26 15 14 37 30 50 35 13 5 20 13 17 19 -3 5 1 10 9 10 8 0 42
27 75 61 33 33 65 58 70 55 14 -9 63 35 57 50 -3 9 1 14 12 14 10 0 26 6 37
13 26 18 65 28 65 16 0 -5 11 -9 24 -9 14 0 28 -5 32 -11 4 -8 9 -7 16 2 7 11
11 11 15 2 2 -7 17 -13 33 -13 16 0 30 -7 34 -15 3 -8 12 -15 21 -15 13 0 69
-33 131 -77 29 -22 51 -34 67 -39 9 -4 17 -10 17 -13 0 -12 140 -78 224 -107
100 -33 219 -37 284 -8 23 10 42 22 42 27 0 4 4 6 9 3 5 -3 11 4 15 17 3 12 1
24 -4 25 -6 2 -10 8 -10 13 0 6 8 5 20 -1 16 -8 20 -8 20 4 0 8 5 16 12 18 7
3 -41 4 -105 3 -64 -1 -115 1 -112 3 5 5 -151 62 -177 65 -9 1 -15 4 -12 8 2
4 -17 19 -43 34 -83 48 -185 131 -278 226 l-90 93 100 -93 c257 -239 445 -333
640 -318 84 7 165 33 165 53 0 22 -35 86 -110 204 -76 120 -113 186 -159 285
-44 95 -24 71 33 -40 60 -117 66 -126 63 -98 0 12 -4 20 -8 17 -3 -2 -6 8 -6
21 0 27 14 34 23 10 4 -8 10 -13 14 -10 4 3 25 -11 46 -31 25 -22 46 -33 57
-30 10 2 27 -4 37 -14 10 -10 20 -16 23 -14 2 3 18 -8 34 -23 51 -48 143 -116
149 -110 12 11 7 64 -9 102 -23 51 -17 82 6 38 10 -18 19 -33 20 -33 11 0 -3
54 -18 70 -10 11 -13 20 -7 20 7 0 12 5 12 11 0 5 -4 7 -10 4 -9 -6 -14 8 -11
28 0 4 -3 7 -7 7 -4 0 -12 -3 -17 -7 -6 -5 -7 -4 -3 1 3 5 -2 18 -12 29 -11
11 -17 23 -15 27 6 10 -34 45 -42 37 -3 -4 1 -15 9 -24 33 -39 30 -46 -5 -10
-40 41 -45 49 -22 41 50 -20 -25 31 -157 105 -67 38 -78 51 -15 20 173 -87
352 -221 470 -351 l72 -80 8 33 c4 19 8 81 9 139 2 120 -20 217 -73 323 -17
34 -27 58 -21 52 6 -5 26 -42 46 -81z m2058 -1624 c9 -46 -6 -187 -31 -280
-62 -231 -203 -474 -376 -645 -140 -140 -232 -190 -394 -216 -109 -16 -191 -1
-246 48 -23 21 -51 56 -61 78 -27 56 -24 152 8 235 l25 65 5 -80 c8 -103 29
-156 85 -204 129 -114 318 -87 498 70 55 49 144 172 187 259 92 188 89 388 -7
483 -34 34 -63 34 -128 2 -28 -14 -57 -24 -66 -22 -10 2 0 11 27 25 23 12 72
42 110 66 70 45 239 133 282 147 50 16 74 7 82 -31z m-674 -410 c4 -43 -27
-94 -77 -127 -64 -44 -101 -22 -87 51 10 50 92 119 136 114 21 -3 26 -9 28
-38z m-4953 -1810 c17 -11 39 -25 50 -32 11 -7 22 -15 25 -18 3 -3 21 -17 40
-30 19 -13 69 -53 110 -89 86 -75 205 -154 223 -148 6 2 23 -9 37 -24 14 -15
51 -38 83 -53 31 -14 57 -30 57 -34 0 -10 181 -122 197 -122 5 0 30 -16 54
-35 24 -19 47 -35 51 -35 8 0 127 -77 163 -105 10 -8 23 -15 28 -15 5 0 7 -6
4 -14 -4 -9 4 -16 24 -20 35 -7 71 -36 45 -36 -8 0 -18 5 -21 10 -4 6 -15 8
-24 5 -10 -3 -24 1 -31 10 -7 8 -17 12 -22 9 -6 -4 -13 -2 -17 4 -3 6 -42 29
-86 52 -44 24 -111 59 -150 79 -38 20 -113 63 -165 95 -52 32 -108 66 -125 76
-50 28 -219 143 -240 163 -11 11 -56 43 -100 72 -95 62 -224 181 -185 170 20
-6 15 2 -25 39 -52 48 -52 60 0 26z m2229 -1041 c45 -39 53 -78 32 -159 -23
-91 -21 -113 31 -340 74 -320 81 -354 97 -460 8 -52 20 -129 27 -170 9 -55 9
-150 3 -360 -5 -157 -9 -554 -9 -883 0 -328 -3 -597 -7 -597 -5 0 -9 12 -9 28
-1 17 -3 20 -6 9 -2 -9 -9 -15 -14 -11 -5 3 -7 10 -4 15 4 5 -1 19 -9 31 -10
14 -16 17 -16 8 0 -11 -3 -11 -12 -2 -17 17 -39 15 -32 -2 4 -11 -1 -11 -29 2
l-35 17 -10 125 c-19 212 -34 718 -21 685 5 -13 7 4 7 45 -1 62 -1 63 -8 20
l-7 -45 -1 44 c-2 56 15 299 34 479 29 279 -15 683 -110 1006 -13 45 -27 95
-30 111 l-6 30 15 -25 15 -25 -6 30 c-3 17 -12 44 -19 60 -7 17 -20 67 -29
112 -18 98 -13 115 46 157 23 17 36 32 29 34 -35 12 -119 -96 -124 -159 -1
-20 -2 -20 -21 3 l-19 23 7 -30 c4 -16 9 -38 12 -47 4 -13 1 -16 -10 -12 -22
8 -30 68 -16 117 40 144 176 214 264 136z m942 -378 c-9 -42 -23 -123 -31
-181 -8 -58 -23 -154 -34 -215 -10 -60 -22 -157 -26 -215 -9 -155 10 -457 45
-690 68 -457 80 -559 110 -920 12 -143 46 -468 57 -535 l6 -39 -30 24 c-17 14
-28 29 -26 33 3 5 11 0 19 -10 13 -16 14 -15 7 12 -4 17 -6 38 -5 48 0 9 -3
15 -7 13 -6 -4 -35 252 -63 561 -6 73 -14 131 -16 128 -5 -5 13 -273 33 -479
15 -150 19 -276 10 -276 -16 0 -85 53 -84 63 1 7 -1 24 -5 38 -4 14 -11 57
-16 95 l-9 69 3 -75 c3 -52 1 -66 -4 -45 -8 27 -21 148 -76 675 -14 141 -68
514 -79 550 -13 44 -37 298 -42 455 -6 192 9 525 32 690 7 55 19 145 26 200 6
55 16 107 21 115 7 12 8 10 4 -5 -2 -11 -7 -63 -10 -115 l-5 -95 13 60 c23
105 35 141 57 161 17 16 22 16 30 4 5 -8 8 -37 5 -65 l-5 -50 19 40 c10 22 19
48 19 58 1 18 31 25 31 7 0 -24 20 -7 21 18 l1 27 10 -29 c8 -21 6 -48 -6
-105z m-636 -255 c0 -11 -34 -140 -57 -218 -24 -80 -57 -138 -71 -124 -12 13
-29 187 -24 258 3 60 8 78 21 81 21 6 131 8 131 3z m2820 -280 c19 -5 41 -13
47 -18 7 -6 19 -8 26 -5 7 3 24 -1 38 -9 13 -7 20 -13 14 -14 -5 0 1 -7 13
-16 13 -9 21 -21 19 -27 -2 -7 0 -20 5 -29 10 -21 8 -22 -29 -7 -31 13 -223
18 -223 7 0 -14 -45 -8 -69 9 l-24 16 21 8 c12 5 22 15 22 22 0 8 11 19 25 25
14 6 25 20 25 29 0 20 29 23 90 9z m-3151 -403 c1 -64 -3 -93 -10 -93 -8 0
-10 16 -6 50 5 44 4 50 -13 50 -10 0 -21 -6 -24 -12 -3 -7 -4 -1 -2 14 1 15 0
25 -4 23 -11 -7 -14 66 -6 140 2 22 4 48 5 57 1 11 7 15 15 12 8 -3 18 1 22 8
10 15 21 -109 23 -249z m3126 67 c3 -5 12 -7 20 -3 18 6 20 -13 3 -21 -7 -3 0
-4 17 -3 19 1 38 -6 55 -21 14 -13 32 -30 41 -38 9 -8 23 -14 33 -14 9 0 19
-7 22 -15 4 -8 13 -15 20 -15 17 0 34 -40 34 -78 0 -22 2 -24 11 -12 9 13 10
13 6 0 -2 -8 -10 -15 -18 -16 -8 0 -16 -2 -19 -3 -16 -8 -61 -11 -57 -4 3 5
-12 7 -34 5 -21 -2 -39 -8 -39 -13 0 -5 -12 -9 -27 -9 -16 -1 -46 -7 -68 -15
-21 -8 -41 -12 -43 -10 -7 6 50 71 57 65 3 -3 5 -9 3 -14 -2 -5 5 -6 14 -2 9
3 27 9 40 12 13 3 24 9 24 13 0 6 31 21 73 35 16 5 14 10 -16 38 -18 18 -36
41 -40 51 -4 10 -11 16 -16 12 -5 -3 -27 4 -48 15 -73 38 -209 50 -278 24 -14
-5 -17 -4 -10 3 27 29 226 56 240 33z m-177 -385 c9 14 68 13 82 -1 12 -12
-19 -54 -40 -54 -7 0 -10 -8 -7 -19 3 -14 0 -17 -14 -14 -15 4 -19 0 -19 -19
0 -14 -11 -37 -25 -52 -14 -15 -25 -31 -25 -37 0 -5 -3 -9 -7 -9 -5 0 -16 -14
-26 -31 -11 -20 -22 -29 -32 -25 -8 3 -15 1 -15 -5 0 -19 -55 -58 -82 -59 -15
0 -30 -4 -33 -10 -8 -14 -45 -13 -45 1 0 8 -4 8 -12 2 -7 -6 -26 -9 -43 -8
-16 1 -49 3 -73 4 -30 1 -41 5 -36 13 4 7 3 8 -4 4 -15 -9 -82 9 -107 29 -15
11 -15 13 -4 9 10 -3 20 -1 24 5 3 6 1 11 -4 11 -6 0 -11 6 -11 14 0 16 80 86
99 86 14 0 62 29 76 47 6 6 33 14 60 16 28 2 50 8 50 13 0 5 13 22 28 38 23
24 29 27 42 16 12 -10 19 -10 27 -2 7 7 20 12 29 12 10 0 20 6 22 13 4 8 8 9
14 1 12 -15 43 -25 43 -13 0 6 5 7 10 4 6 -3 10 3 10 14 0 19 2 20 20 9 14 -9
23 -10 28 -3z m-3696 -513 c18 -6 58 -18 88 -26 84 -24 151 -67 178 -115 13
-22 21 -41 18 -41 -3 0 -12 14 -21 30 -15 28 -75 74 -113 87 -9 2 5 -9 31 -27
40 -26 46 -34 37 -46 -15 -17 -21 -18 -17 -1 1 7 -7 11 -20 10 -37 -4 -85 -63
-52 -63 7 0 9 -10 7 -25 -3 -14 -1 -25 3 -25 5 0 9 -16 9 -35 0 -20 -5 -35
-12 -35 -35 0 -282 -137 -358 -199 -14 -11 -31 -21 -37 -21 -7 0 -13 -4 -13
-8 0 -5 -30 -24 -67 -42 -38 -18 -97 -56 -133 -85 -36 -28 -96 -76 -135 -105
-38 -30 -79 -65 -90 -77 -11 -13 -24 -23 -29 -23 -4 0 -13 -6 -20 -12 -8 -7
-42 -38 -77 -68 -35 -30 -76 -67 -91 -82 -15 -14 -44 -36 -63 -48 -19 -12 -35
-26 -35 -31 0 -5 -6 -9 -13 -9 -6 0 -26 -15 -43 -32 -36 -39 -110 -93 -141
-102 -13 -4 -23 -14 -23 -22 0 -9 -11 -14 -29 -14 -17 0 -32 -4 -35 -9 -3 -5
-15 -11 -26 -14 -15 -4 -25 4 -41 30 -21 34 -22 40 -10 96 22 107 91 233 180
330 39 43 163 154 226 202 22 17 55 44 75 60 36 32 98 79 136 105 182 123 240
160 287 183 20 11 37 23 37 28 0 5 7 9 16 9 8 0 41 17 72 38 32 20 66 43 77
50 11 7 40 22 65 34 25 11 51 29 58 40 7 10 18 16 23 13 5 -4 9 -2 9 3 0 5 18
28 40 51 31 32 36 43 25 47 -8 4 -15 13 -15 21 0 13 2 12 15 0 8 -9 29 -20 47
-25z m-4423 -1218 c1 -13 -21 -40 -59 -74 -33 -29 -58 -56 -55 -58 2 -3 30 15
62 38 52 40 58 42 67 26 6 -10 32 -46 58 -80 45 -57 59 -84 39 -72 -4 3 -15 0
-23 -7 -13 -10 -213 -234 -264 -294 -10 -13 -23 -23 -29 -23 -9 0 -32 -28 -32
-40 0 -3 -21 -27 -47 -54 -25 -27 -46 -54 -46 -60 0 -6 -14 -26 -30 -45 -17
-18 -30 -40 -30 -47 0 -7 -9 -15 -19 -19 -12 -3 -18 -12 -15 -20 3 -7 -4 -18
-15 -25 -11 -6 -20 -14 -19 -18 3 -17 -16 -42 -33 -42 -23 0 -62 -37 -54 -50
4 -6 0 -10 -8 -10 -10 0 -19 -18 -27 -49 -10 -43 -15 -49 -41 -53 -36 -6 -39
-3 -39 41 0 20 -7 70 -16 111 -24 116 -9 209 58 348 97 201 293 410 573 608
27 19 31 20 37 5 4 -9 7 -25 7 -37z m201 -262 c0 -4 -16 -23 -35 -42 -19 -18
-43 -53 -55 -77 -21 -44 -34 -62 -86 -119 -18 -19 -37 -47 -43 -62 -6 -15 -24
-34 -39 -43 -17 -10 -44 -47 -72 -101 -27 -51 -48 -82 -52 -75 -5 8 -12 6 -22
-8 -14 -19 -15 -18 -7 10 23 85 115 239 218 367 77 95 193 185 193 150z"/>
<path d="M8485 12485 c-143 -32 -534 -169 -549 -193 -3 -5 68 -14 162 -21 392
-28 578 -57 722 -112 43 -17 154 -67 247 -113 201 -98 253 -120 357 -146 193
-49 399 -1 473 109 25 37 30 80 11 85 -7 2 -59 8 -114 14 -133 13 -269 61
-532 186 -237 114 -355 158 -491 186 -112 23 -198 24 -286 5z"/>
<path d="M8467 12147 c-6 -16 -20 -18 -150 -16 -79 1 -149 -1 -155 -5 -6 -3
-27 -7 -47 -8 -19 -1 -35 -5 -35 -10 0 -5 -6 -8 -12 -7 -27 3 -47 -2 -60 -15
-8 -7 -29 -17 -46 -21 -18 -3 -32 -10 -32 -14 0 -4 -14 -8 -31 -9 -37 -3 -59
-23 -59 -53 0 -12 -3 -19 -7 -16 -3 4 -12 2 -19 -3 -6 -6 -16 -10 -20 -9 -28
5 -35 -3 -34 -43 1 -24 -1 -68 -4 -98 -13 -116 -13 -139 -5 -270 10 -183 46
-294 132 -410 56 -76 178 -190 234 -220 27 -13 50 -27 53 -30 6 -6 40 -26 95
-55 116 -62 385 -115 578 -116 173 0 220 9 362 68 194 81 361 182 399 242 4 7
17 22 27 32 11 11 19 23 19 27 0 5 12 14 26 20 14 7 23 16 19 21 -3 5 6 18 20
29 14 11 25 25 25 32 0 7 6 10 14 7 9 -4 12 0 9 13 -3 12 2 20 16 25 12 3 23
18 27 33 3 15 12 39 20 55 8 15 12 31 9 37 -3 6 1 7 9 4 26 -10 21 64 -6 93
-17 18 -19 26 -10 35 17 17 15 23 -13 36 -14 6 -25 19 -25 28 0 8 -18 33 -40
55 -22 22 -38 44 -35 49 6 10 -44 52 -55 45 -5 -3 -11 4 -15 15 -4 11 -18 28
-33 38 -14 9 -36 26 -49 38 -12 12 -37 25 -55 30 -33 10 -48 29 -26 37 7 2 0
2 -16 -1 -17 -2 -26 0 -23 5 4 6 -19 16 -49 22 -57 13 -90 26 -257 105 -55 25
-101 46 -104 46 -14 0 21 -30 36 -31 10 0 11 -2 4 -6 -7 -2 -28 4 -46 15 -48
30 -187 82 -219 82 -16 0 -28 6 -28 13 0 9 -3 8 -9 -2 -6 -9 -11 -10 -15 -2
-4 6 -4 11 1 12 4 0 -1 4 -12 8 -11 5 -28 4 -38 -1 -9 -5 -45 -6 -80 -2 -34 4
-81 6 -104 5 -33 -1 -42 2 -45 16 -3 17 -4 17 -11 0z m286 -182 c95 -16 218
-58 259 -86 14 -11 30 -19 35 -19 5 0 50 -23 99 -52 292 -171 376 -437 230
-726 -56 -111 -165 -189 -322 -233 -113 -31 -321 -37 -451 -14 -237 43 -451
144 -575 272 -157 162 -219 434 -136 599 59 120 233 221 441 259 100 18 316
18 420 0z"/>
<path d="M8851 11800 c-103 -15 -228 -80 -271 -140 l-20 -28 39 5 c46 6 96
-23 112 -65 20 -51 -32 -132 -94 -148 -24 -6 -34 0 -73 40 l-44 46 -20 -32
c-56 -90 -64 -236 -20 -331 33 -70 105 -141 175 -174 49 -22 78 -28 156 -31
216 -9 387 84 481 263 147 282 -5 564 -322 598 -25 3 -69 1 -99 -3z"/>
<path d="M10583 10069 c-1 -73 -18 -139 -36 -139 -7 0 -28 -13 -47 -28 -36
-30 -121 -74 -136 -71 -5 1 -11 1 -14 -1 -8 -3 -42 -8 -102 -14 -87 -9 -297
26 -360 60 -14 7 -38 14 -51 14 -14 0 -29 5 -32 10 -3 6 -14 10 -23 10 -9 0
-30 7 -46 15 -51 27 -66 16 -66 -49 0 -87 89 -189 240 -273 59 -33 111 -46
185 -45 69 2 91 7 172 43 24 11 47 19 52 19 5 0 14 7 21 15 7 9 27 22 45 31
25 11 32 20 28 35 -3 10 0 19 6 19 6 0 11 5 11 11 0 6 -9 9 -20 6 -35 -9 -22
8 40 52 98 69 151 163 149 265 -1 73 -16 86 -16 15z"/>
<path d="M6160 16515 c0 -9 -6 -12 -15 -9 -8 4 -15 1 -15 -6 0 -7 -7 -10 -16
-6 -11 4 -18 -1 -21 -14 -3 -11 -9 -18 -13 -15 -4 3 -30 -18 -58 -45 -28 -28
-56 -50 -63 -50 -7 0 -10 -3 -7 -6 11 -11 -66 -84 -88 -84 -22 0 -39 -24 -28
-41 3 -5 -8 -12 -25 -15 -18 -4 -31 -13 -31 -22 0 -18 -66 -82 -86 -82 -8 0
-14 -9 -14 -20 0 -11 -5 -20 -11 -20 -7 0 -45 -34 -86 -75 -41 -41 -79 -75
-84 -75 -6 0 -7 -5 -3 -12 5 -8 2 -9 -9 -5 -12 4 -17 1 -17 -9 0 -9 -9 -18
-20 -21 -11 -3 -20 -9 -20 -13 0 -4 -9 -10 -20 -13 -11 -3 -19 -11 -18 -18 2
-8 -7 -15 -18 -17 -12 -2 -26 -14 -32 -28 -7 -13 -16 -24 -22 -24 -6 0 -8 -4
-5 -10 3 -5 -1 -10 -9 -10 -8 0 -31 -24 -50 -52 -19 -29 -47 -65 -61 -80 -14
-15 -25 -34 -25 -42 0 -8 -4 -18 -10 -21 -12 -7 -60 -107 -60 -124 0 -7 -7
-19 -15 -27 -8 -9 -17 -27 -20 -42 -9 -44 -27 -97 -36 -102 -4 -3 -12 -39 -17
-80 -6 -41 -15 -95 -21 -120 -11 -51 -14 -209 -5 -287 6 -47 9 -53 30 -53 25
0 71 40 92 80 8 14 31 39 52 55 22 17 39 36 40 43 0 6 6 12 13 12 7 0 21 15
32 33 10 17 28 42 40 55 26 26 103 139 135 197 12 22 30 54 40 70 10 17 25 41
33 55 39 71 94 173 127 235 20 39 47 88 60 110 13 22 31 54 40 71 9 16 25 43
36 60 11 16 26 43 34 59 8 17 21 38 29 48 8 9 10 17 6 17 -5 0 1 10 12 23 27
30 83 116 83 128 0 5 5 9 10 9 6 0 10 5 10 11 0 6 8 23 19 37 10 15 31 50 47
77 15 28 51 85 81 127 29 43 53 80 53 83 0 3 12 19 27 36 35 39 42 79 13 79
-11 0 -20 -7 -20 -15z"/>
<path d="M9277 1588 c7 -40 15 -91 16 -113 3 -37 6 -41 41 -53 49 -16 250 -52
292 -52 40 0 44 11 44 105 0 88 -11 122 -44 135 -36 13 -269 50 -320 50 l-43
0 14 -72z"/>
</g>
</svg>
